<?xml version="1.0" encoding="utf-8" ?>
<svg baseProfile="full" height="296.566170501" version="1.1" width="2450.63929687" xmlns="http://www.w3.org/2000/svg" xmlns:ev="http://www.w3.org/2001/xml-events" xmlns:xlink="http://www.w3.org/1999/xlink"><defs /><rect fill="white" height="296.566170501" width="2450.63929687" x="0" y="0" /><path d="M 25.0,84.321436882 " fill="rgb(85,133,113)" stroke="rgb(85,133,113)" stroke-width="2" /><path d="M 87.0732355118,25.0 " fill="rgb(20,74,151)" stroke="rgb(20,74,151)" stroke-width="2" /><path d="M +87.0732355118,25.0 L 87.3275817372,28.5031831264 " fill="rgb(20,74,151)" stroke="rgb(20,74,151)" stroke-width="2" /><path d="M +87.3275817372,28.5031831264 L 85.2467813529,35.4853445292 " fill="rgb(20,74,151)" stroke="rgb(20,74,151)" stroke-width="2" /><path d="M +85.2467813529,35.4853445292 L 82.9299503006,51.283326745 " fill="rgb(20,74,151)" stroke="rgb(20,74,151)" stroke-width="2" /><path d="M +82.9299503006,51.283326745 L 76.0973709263,69.0908592939 " fill="rgb(20,74,151)" stroke="rgb(20,74,151)" stroke-width="2" /><path d="M +76.0973709263,69.0908592939 L 68.1766849197,89.970394969 " fill="rgb(20,74,151)" stroke="rgb(20,74,151)" stroke-width="2" /><path d="M +68.1766849197,89.970394969 L 64.9780970253,112.829415202 " fill="rgb(20,74,151)" stroke="rgb(20,74,151)" stroke-width="2" /><path d="M +64.9780970253,112.829415202 L 62.7087543346,130.062870383 " fill="rgb(20,74,151)" stroke="rgb(20,74,151)" stroke-width="2" /><path d="M +62.7087543346,130.062870383 L 62.235688176,143.858188987 " fill="rgb(20,74,151)" stroke="rgb(20,74,151)" stroke-width="2" /><path d="M 122.550229039,127.769358754 " fill="rgb(27,22,130)" stroke="rgb(27,22,130)" stroke-width="2" /><path d="M +122.550229039,127.769358754 L 123.199433293,125.860040635 " fill="rgb(27,22,130)" stroke="rgb(27,22,130)" stroke-width="2" /><path d="M +123.199433293,125.860040635 L 125.488554593,125.863381516 " fill="rgb(27,22,130)" stroke="rgb(27,22,130)" stroke-width="2" /><path d="M +125.488554593,125.863381516 L 131.330747958,126.323228184 " fill="rgb(27,22,130)" stroke="rgb(27,22,130)" stroke-width="2" /><path d="M +131.330747958,126.323228184 L 139.231815096,126.202140789 " fill="rgb(27,22,130)" stroke="rgb(27,22,130)" stroke-width="2" /><path d="M 282.774467226,51.5947732737 " fill="rgb(197,169,82)" stroke="rgb(197,169,82)" stroke-width="2" /><path d="M +282.774467226,51.5947732737 L 280.780257788,49.2125527968 " fill="rgb(197,169,82)" stroke="rgb(197,169,82)" stroke-width="2" /><path d="M +280.780257788,49.2125527968 L 279.986920636,51.9804819336 " fill="rgb(197,169,82)" stroke="rgb(197,169,82)" stroke-width="2" /><path d="M +279.986920636,51.9804819336 L 279.722459763,60.9550561418 " fill="rgb(197,169,82)" stroke="rgb(197,169,82)" stroke-width="2" /><path d="M +279.722459763,60.9550561418 L 277.193196267,75.8125533571 " fill="rgb(197,169,82)" stroke="rgb(197,169,82)" stroke-width="2" /><path d="M +277.193196267,75.8125533571 L 275.031435639,96.0117973795 " fill="rgb(197,169,82)" stroke="rgb(197,169,82)" stroke-width="2" /><path d="M +275.031435639,96.0117973795 L 270.859474093,117.230113934 " fill="rgb(197,169,82)" stroke="rgb(197,169,82)" stroke-width="2" /><path d="M +270.859474093,117.230113934 L 268.060231358,140.853556584 " fill="rgb(197,169,82)" stroke="rgb(197,169,82)" stroke-width="2" /><path d="M +268.060231358,140.853556584 L 265.618482679,159.150412272 " fill="rgb(197,169,82)" stroke="rgb(197,169,82)" stroke-width="2" /><path d="M +265.618482679,159.150412272 L 266.42119579,172.456642579 " fill="rgb(197,169,82)" stroke="rgb(197,169,82)" stroke-width="2" /><path d="M +266.42119579,172.456642579 L 270.634997413,180.114420842 " fill="rgb(197,169,82)" stroke="rgb(197,169,82)" stroke-width="2" /><path d="M +270.634997413,180.114420842 L 272.95553036,180.578403774 " fill="rgb(197,169,82)" stroke="rgb(197,169,82)" stroke-width="2" /><path d="M +272.95553036,180.578403774 L 275.77257432,177.278321091 " fill="rgb(197,169,82)" stroke="rgb(197,169,82)" stroke-width="2" /><path d="M +275.77257432,177.278321091 L 281.995687857,169.174955789 " fill="rgb(197,169,82)" stroke="rgb(197,169,82)" stroke-width="2" /><path d="M +281.995687857,169.174955789 L 288.394072428,156.351090375 " fill="rgb(197,169,82)" stroke="rgb(197,169,82)" stroke-width="2" /><path d="M +288.394072428,156.351090375 L 296.417958513,142.998465005 " fill="rgb(197,169,82)" stroke="rgb(197,169,82)" stroke-width="2" /><path d="M +296.417958513,142.998465005 L 302.305519953,129.255515042 " fill="rgb(197,169,82)" stroke="rgb(197,169,82)" stroke-width="2" /><path d="M +302.305519953,129.255515042 L 307.257073894,122.355416123 " fill="rgb(197,169,82)" stroke="rgb(197,169,82)" stroke-width="2" /><path d="M +307.257073894,122.355416123 L 308.884637877,121.107009578 " fill="rgb(197,169,82)" stroke="rgb(197,169,82)" stroke-width="2" /><path d="M +308.884637877,121.107009578 L 308.665070496,121.95407011 " fill="rgb(197,169,82)" stroke="rgb(197,169,82)" stroke-width="2" /><path d="M +308.665070496,121.95407011 L 309.043343291,127.326956767 " fill="rgb(197,169,82)" stroke="rgb(197,169,82)" stroke-width="2" /><path d="M +309.043343291,127.326956767 L 309.346150123,138.369426507 " fill="rgb(197,169,82)" stroke="rgb(197,169,82)" stroke-width="2" /><path d="M +309.346150123,138.369426507 L 308.671416454,150.112396259 " fill="rgb(197,169,82)" stroke="rgb(197,169,82)" stroke-width="2" /><path d="M +308.671416454,150.112396259 L 311.580864899,163.629154939 " fill="rgb(197,169,82)" stroke="rgb(197,169,82)" stroke-width="2" /><path d="M +311.580864899,163.629154939 L 315.506113581,172.644932646 " fill="rgb(197,169,82)" stroke="rgb(197,169,82)" stroke-width="2" /><path d="M +315.506113581,172.644932646 L 322.272859626,178.986582536 " fill="rgb(197,169,82)" stroke="rgb(197,169,82)" stroke-width="2" /><path d="M +322.272859626,178.986582536 L 327.561002187,178.416249532 " fill="rgb(197,169,82)" stroke="rgb(197,169,82)" stroke-width="2" /><path d="M +327.561002187,178.416249532 L 334.599968009,174.260994572 " fill="rgb(197,169,82)" stroke="rgb(197,169,82)" stroke-width="2" /><path d="M +334.599968009,174.260994572 L 342.376565151,166.317528862 " fill="rgb(197,169,82)" stroke="rgb(197,169,82)" stroke-width="2" /><path d="M +342.376565151,166.317528862 L 348.296038918,153.062173504 " fill="rgb(197,169,82)" stroke="rgb(197,169,82)" stroke-width="2" /><path d="M +348.296038918,153.062173504 L 351.383499019,138.906007189 " fill="rgb(197,169,82)" stroke="rgb(197,169,82)" stroke-width="2" /><path d="M +351.383499019,138.906007189 L 353.826707862,126.053269285 " fill="rgb(197,169,82)" stroke="rgb(197,169,82)" stroke-width="2" /><path d="M +353.826707862,126.053269285 L 353.19709558,115.121107477 " fill="rgb(197,169,82)" stroke="rgb(197,169,82)" stroke-width="2" /><path d="M +353.19709558,115.121107477 L 347.845564075,103.976157088 " fill="rgb(197,169,82)" stroke="rgb(197,169,82)" stroke-width="2" /><path d="M +347.845564075,103.976157088 L 346.217800416,101.199164767 " fill="rgb(197,169,82)" stroke="rgb(197,169,82)" stroke-width="2" /><path d="M +346.217800416,101.199164767 L 344.487681724,101.597284119 " fill="rgb(197,169,82)" stroke="rgb(197,169,82)" stroke-width="2" /><path d="M +344.487681724,101.597284119 L 343.320461325,102.744357925 " fill="rgb(197,169,82)" stroke="rgb(197,169,82)" stroke-width="2" /><path d="M 387.153602652,106.629203897 " fill="rgb(113,162,66)" stroke="rgb(113,162,66)" stroke-width="2" /><path d="M +387.153602652,106.629203897 L 389.316164367,113.238510828 " fill="rgb(113,162,66)" stroke="rgb(113,162,66)" stroke-width="2" /><path d="M +389.316164367,113.238510828 L 390.21686364,121.94778059 " fill="rgb(113,162,66)" stroke="rgb(113,162,66)" stroke-width="2" /><path d="M +390.21686364,121.94778059 L 388.435606547,131.919541102 " fill="rgb(113,162,66)" stroke="rgb(113,162,66)" stroke-width="2" /><path d="M +388.435606547,131.919541102 L 386.56014327,142.985820513 " fill="rgb(113,162,66)" stroke="rgb(113,162,66)" stroke-width="2" /><path d="M +386.56014327,142.985820513 L 386.363212895,152.543334108 " fill="rgb(113,162,66)" stroke="rgb(113,162,66)" stroke-width="2" /><path d="M +386.363212895,152.543334108 L 386.499420181,159.062252979 " fill="rgb(113,162,66)" stroke="rgb(113,162,66)" stroke-width="2" /><path d="M +386.499420181,159.062252979 L 386.990851648,161.057028811 " fill="rgb(113,162,66)" stroke="rgb(113,162,66)" stroke-width="2" /><path d="M +386.990851648,161.057028811 L 389.714620002,161.904887747 " fill="rgb(113,162,66)" stroke="rgb(113,162,66)" stroke-width="2" /><path d="M 396.396472938,89.0660424938 " fill="rgb(34,163,87)" stroke="rgb(34,163,87)" stroke-width="2" /><path d="M +396.396472938,89.0660424938 L 398.096152283,88.234780248 " fill="rgb(34,163,87)" stroke="rgb(34,163,87)" stroke-width="2" /><path d="M +398.096152283,88.234780248 L 399.986745603,88.4436775779 " fill="rgb(34,163,87)" stroke="rgb(34,163,87)" stroke-width="2" /><path d="M +399.986745603,88.4436775779 L 399.659871794,87.9670954531 " fill="rgb(34,163,87)" stroke="rgb(34,163,87)" stroke-width="2" /><path d="M +399.659871794,87.9670954531 L 403.579649664,91.2554622476 " fill="rgb(34,163,87)" stroke="rgb(34,163,87)" stroke-width="2" /><path d="M 467.397622801,149.623587209 " fill="rgb(164,119,54)" stroke="rgb(164,119,54)" stroke-width="2" /><path d="M +467.397622801,149.623587209 L 468.953384645,149.527102712 " fill="rgb(164,119,54)" stroke="rgb(164,119,54)" stroke-width="2" /><path d="M +468.953384645,149.527102712 L 468.174058162,147.636418346 " fill="rgb(164,119,54)" stroke="rgb(164,119,54)" stroke-width="2" /><path d="M +468.174058162,147.636418346 L 467.097030096,144.340085391 " fill="rgb(164,119,54)" stroke="rgb(164,119,54)" stroke-width="2" /><path d="M +467.097030096,144.340085391 L 466.489645988,142.710882429 " fill="rgb(164,119,54)" stroke="rgb(164,119,54)" stroke-width="2" /><path d="M +466.489645988,142.710882429 L 461.903884262,140.679277781 " fill="rgb(164,119,54)" stroke="rgb(164,119,54)" stroke-width="2" /><path d="M +461.903884262,140.679277781 L 457.105553001,141.957408044 " fill="rgb(164,119,54)" stroke="rgb(164,119,54)" stroke-width="2" /><path d="M +457.105553001,141.957408044 L 449.472786039,145.876777623 " fill="rgb(164,119,54)" stroke="rgb(164,119,54)" stroke-width="2" /><path d="M +449.472786039,145.876777623 L 442.140062898,152.232488844 " fill="rgb(164,119,54)" stroke="rgb(164,119,54)" stroke-width="2" /><path d="M +442.140062898,152.232488844 L 435.400433987,158.78526077 " fill="rgb(164,119,54)" stroke="rgb(164,119,54)" stroke-width="2" /><path d="M +435.400433987,158.78526077 L 473.51623103,179.817527387 " fill="rgb(164,119,54)" stroke="rgb(164,119,54)" stroke-width="2" /><path d="M +473.51623103,179.817527387 L 461.786438674,196.934193227 " fill="rgb(164,119,54)" stroke="rgb(164,119,54)" stroke-width="2" /><path d="M +461.786438674,196.934193227 L 480.21072194,211.438751075 " fill="rgb(164,119,54)" stroke="rgb(164,119,54)" stroke-width="2" /><path d="M +480.21072194,211.438751075 L 485.73244676,216.562417004 " fill="rgb(164,119,54)" stroke="rgb(164,119,54)" stroke-width="2" /><path d="M +485.73244676,216.562417004 L 490.717479438,219.710692916 " fill="rgb(164,119,54)" stroke="rgb(164,119,54)" stroke-width="2" /><path d="M +490.717479438,219.710692916 L 493.331070691,219.271586876 " fill="rgb(164,119,54)" stroke="rgb(164,119,54)" stroke-width="2" /><path d="M +493.331070691,219.271586876 L 496.2315391,215.906978588 " fill="rgb(164,119,54)" stroke="rgb(164,119,54)" stroke-width="2" /><path d="M 750.213816017,161.408244114 " fill="rgb(209,190,101)" stroke="rgb(209,190,101)" stroke-width="2" /><path d="M +750.213816017,161.408244114 L 746.248623878,148.72461174 " fill="rgb(209,190,101)" stroke="rgb(209,190,101)" stroke-width="2" /><path d="M +746.248623878,148.72461174 L 741.685982794,137.818418484 " fill="rgb(209,190,101)" stroke="rgb(209,190,101)" stroke-width="2" /><path d="M +741.685982794,137.818418484 L 734.944791645,132.057721358 " fill="rgb(209,190,101)" stroke="rgb(209,190,101)" stroke-width="2" /><path d="M +734.944791645,132.057721358 L 725.475460738,130.113234561 " fill="rgb(209,190,101)" stroke="rgb(209,190,101)" stroke-width="2" /><path d="M +725.475460738,130.113234561 L 713.644705266,131.398605745 " fill="rgb(209,190,101)" stroke="rgb(209,190,101)" stroke-width="2" /><path d="M +713.644705266,131.398605745 L 702.39389345,136.974809807 " fill="rgb(209,190,101)" stroke="rgb(209,190,101)" stroke-width="2" /><path d="M +702.39389345,136.974809807 L 691.139257401,145.246139209 " fill="rgb(209,190,101)" stroke="rgb(209,190,101)" stroke-width="2" /><path d="M +691.139257401,145.246139209 L 683.240578622,155.243904035 " fill="rgb(209,190,101)" stroke="rgb(209,190,101)" stroke-width="2" /><path d="M +683.240578622,155.243904035 L 679.68556419,165.438423794 " fill="rgb(209,190,101)" stroke="rgb(209,190,101)" stroke-width="2" /><path d="M +679.68556419,165.438423794 L 681.580035388,173.350744884 " fill="rgb(209,190,101)" stroke="rgb(209,190,101)" stroke-width="2" /><path d="M +681.580035388,173.350744884 L 683.839694411,175.286123942 " fill="rgb(209,190,101)" stroke="rgb(209,190,101)" stroke-width="2" /><path d="M +683.839694411,175.286123942 L 691.539818794,178.771265935 " fill="rgb(209,190,101)" stroke="rgb(209,190,101)" stroke-width="2" /><path d="M +691.539818794,178.771265935 L 700.658540279,180.635208379 " fill="rgb(209,190,101)" stroke="rgb(209,190,101)" stroke-width="2" /><path d="M +700.658540279,180.635208379 L 708.041098863,179.262747805 " fill="rgb(209,190,101)" stroke="rgb(209,190,101)" stroke-width="2" /><path d="M +708.041098863,179.262747805 L 715.059706718,177.370597761 " fill="rgb(209,190,101)" stroke="rgb(209,190,101)" stroke-width="2" /><path d="M +715.059706718,177.370597761 L 722.151163965,176.394337382 " fill="rgb(209,190,101)" stroke="rgb(209,190,101)" stroke-width="2" /><path d="M +722.151163965,176.394337382 L 724.770016521,172.152653005 " fill="rgb(209,190,101)" stroke="rgb(209,190,101)" stroke-width="2" /><path d="M +724.770016521,172.152653005 L 725.682801455,166.544442441 " fill="rgb(209,190,101)" stroke="rgb(209,190,101)" stroke-width="2" /><path d="M +725.682801455,166.544442441 L 725.565019306,158.364106681 " fill="rgb(209,190,101)" stroke="rgb(209,190,101)" stroke-width="2" /><path d="M +725.565019306,158.364106681 L 724.136719611,147.22036865 " fill="rgb(209,190,101)" stroke="rgb(209,190,101)" stroke-width="2" /><path d="M +724.136719611,147.22036865 L 722.798705753,136.958474185 " fill="rgb(209,190,101)" stroke="rgb(209,190,101)" stroke-width="2" /><path d="M +722.798705753,136.958474185 L 723.142795879,129.497550394 " fill="rgb(209,190,101)" stroke="rgb(209,190,101)" stroke-width="2" /><path d="M +723.142795879,129.497550394 L 725.651468057,123.741711046 " fill="rgb(209,190,101)" stroke="rgb(209,190,101)" stroke-width="2" /><path d="M +725.651468057,123.741711046 L 728.583593685,119.432691898 " fill="rgb(209,190,101)" stroke="rgb(209,190,101)" stroke-width="2" /><path d="M +728.583593685,119.432691898 L 733.892357666,116.591221656 " fill="rgb(209,190,101)" stroke="rgb(209,190,101)" stroke-width="2" /><path d="M +733.892357666,116.591221656 L 740.940857846,116.236463789 " fill="rgb(209,190,101)" stroke="rgb(209,190,101)" stroke-width="2" /><path d="M +740.940857846,116.236463789 L 748.984503467,119.543789331 " fill="rgb(209,190,101)" stroke="rgb(209,190,101)" stroke-width="2" /><path d="M +748.984503467,119.543789331 L 753.93351825,122.398173813 " fill="rgb(209,190,101)" stroke="rgb(209,190,101)" stroke-width="2" /><path d="M +753.93351825,122.398173813 L 758.409347553,130.554411415 " fill="rgb(209,190,101)" stroke="rgb(209,190,101)" stroke-width="2" /><path d="M +758.409347553,130.554411415 L 759.989099074,141.692789797 " fill="rgb(209,190,101)" stroke="rgb(209,190,101)" stroke-width="2" /><path d="M +759.989099074,141.692789797 L 760.851941649,153.767464164 " fill="rgb(209,190,101)" stroke="rgb(209,190,101)" stroke-width="2" /><path d="M +760.851941649,153.767464164 L 762.969699446,164.72164512 " fill="rgb(209,190,101)" stroke="rgb(209,190,101)" stroke-width="2" /><path d="M +762.969699446,164.72164512 L 766.627585832,172.507878545 " fill="rgb(209,190,101)" stroke="rgb(209,190,101)" stroke-width="2" /><path d="M +766.627585832,172.507878545 L 769.60582519,174.755383584 " fill="rgb(209,190,101)" stroke="rgb(209,190,101)" stroke-width="2" /><path d="M +769.60582519,174.755383584 L 777.451337222,176.77739248 " fill="rgb(209,190,101)" stroke="rgb(209,190,101)" stroke-width="2" /><path d="M +777.451337222,176.77739248 L 783.400480393,172.833486948 " fill="rgb(209,190,101)" stroke="rgb(209,190,101)" stroke-width="2" /><path d="M +783.400480393,172.833486948 L 793.498297576,167.227941308 " fill="rgb(209,190,101)" stroke="rgb(209,190,101)" stroke-width="2" /><path d="M +793.498297576,167.227941308 L 801.054110173,158.117165718 " fill="rgb(209,190,101)" stroke="rgb(209,190,101)" stroke-width="2" /><path d="M +801.054110173,158.117165718 L 810.636078361,149.397463355 " fill="rgb(209,190,101)" stroke="rgb(209,190,101)" stroke-width="2" /><path d="M +810.636078361,149.397463355 L 820.268945936,140.667499456 " fill="rgb(209,190,101)" stroke="rgb(209,190,101)" stroke-width="2" /><path d="M +820.268945936,140.667499456 L 827.414474729,135.135008249 " fill="rgb(209,190,101)" stroke="rgb(209,190,101)" stroke-width="2" /><path d="M +827.414474729,135.135008249 L 831.771689896,134.877603039 " fill="rgb(209,190,101)" stroke="rgb(209,190,101)" stroke-width="2" /><path d="M +831.771689896,134.877603039 L 831.529195216,133.781523391 " fill="rgb(209,190,101)" stroke="rgb(209,190,101)" stroke-width="2" /><path d="M +831.529195216,133.781523391 L 832.081040982,140.713394567 " fill="rgb(209,190,101)" stroke="rgb(209,190,101)" stroke-width="2" /><path d="M +832.081040982,140.713394567 L 831.222860981,151.494701788 " fill="rgb(209,190,101)" stroke="rgb(209,190,101)" stroke-width="2" /><path d="M +831.222860981,151.494701788 L 831.934021208,162.216661855 " fill="rgb(209,190,101)" stroke="rgb(209,190,101)" stroke-width="2" /><path d="M +831.934021208,162.216661855 L 836.287151072,171.275188014 " fill="rgb(209,190,101)" stroke="rgb(209,190,101)" stroke-width="2" /><path d="M +836.287151072,171.275188014 L 845.799914692,174.403408453 " fill="rgb(209,190,101)" stroke="rgb(209,190,101)" stroke-width="2" /><path d="M 945.120755527,121.296451971 " fill="rgb(83,189,182)" stroke="rgb(83,189,182)" stroke-width="2" /><path d="M +945.120755527,121.296451971 L 945.437948015,122.793727204 " fill="rgb(83,189,182)" stroke="rgb(83,189,182)" stroke-width="2" /><path d="M +945.437948015,122.793727204 L 947.821809407,130.686356708 " fill="rgb(83,189,182)" stroke="rgb(83,189,182)" stroke-width="2" /><path d="M +947.821809407,130.686356708 L 952.70725226,144.036849424 " fill="rgb(83,189,182)" stroke="rgb(83,189,182)" stroke-width="2" /><path d="M +952.70725226,144.036849424 L 956.171023007,156.465838834 " fill="rgb(83,189,182)" stroke="rgb(83,189,182)" stroke-width="2" /><path d="M 971.398134585,135.048383161 " fill="rgb(67,180,184)" stroke="rgb(67,180,184)" stroke-width="2" /><path d="M +971.398134585,135.048383161 L 974.602048155,126.945833847 " fill="rgb(67,180,184)" stroke="rgb(67,180,184)" stroke-width="2" /><path d="M +974.602048155,126.945833847 L 976.802688893,120.361152574 " fill="rgb(67,180,184)" stroke="rgb(67,180,184)" stroke-width="2" /><path d="M +976.802688893,120.361152574 L 976.41617408,116.514485463 " fill="rgb(67,180,184)" stroke="rgb(67,180,184)" stroke-width="2" /><path d="M +976.41617408,116.514485463 L 977.280575838,116.481706746 " fill="rgb(67,180,184)" stroke="rgb(67,180,184)" stroke-width="2" /><path d="M +977.280575838,116.481706746 L 977.367779249,117.014280207 " fill="rgb(67,180,184)" stroke="rgb(67,180,184)" stroke-width="2" /><path d="M +977.367779249,117.014280207 L 978.550992021,119.6224382 " fill="rgb(67,180,184)" stroke="rgb(67,180,184)" stroke-width="2" /><path d="M +978.550992021,119.6224382 L 983.336512158,126.66572655 " fill="rgb(67,180,184)" stroke="rgb(67,180,184)" stroke-width="2" /><path d="M +983.336512158,126.66572655 L 983.516450794,133.074299343 " fill="rgb(67,180,184)" stroke="rgb(67,180,184)" stroke-width="2" /><path d="M +983.516450794,133.074299343 L 986.836202713,146.718669183 " fill="rgb(67,180,184)" stroke="rgb(67,180,184)" stroke-width="2" /><path d="M +986.836202713,146.718669183 L 986.972454032,157.909950264 " fill="rgb(67,180,184)" stroke="rgb(67,180,184)" stroke-width="2" /><path d="M +986.972454032,157.909950264 L 988.188403463,168.291925438 " fill="rgb(67,180,184)" stroke="rgb(67,180,184)" stroke-width="2" /><path d="M +988.188403463,168.291925438 L 989.457561439,172.094270535 " fill="rgb(67,180,184)" stroke="rgb(67,180,184)" stroke-width="2" /><path d="M +989.457561439,172.094270535 L 990.795722371,171.557327382 " fill="rgb(67,180,184)" stroke="rgb(67,180,184)" stroke-width="2" /><path d="M +990.795722371,171.557327382 L 997.912854915,168.233775966 " fill="rgb(67,180,184)" stroke="rgb(67,180,184)" stroke-width="2" /><path d="M +997.912854915,168.233775966 L 1005.85672296,159.936931006 " fill="rgb(67,180,184)" stroke="rgb(67,180,184)" stroke-width="2" /><path d="M +1005.85672296,159.936931006 L 1015.26727236,149.229650371 " fill="rgb(67,180,184)" stroke="rgb(67,180,184)" stroke-width="2" /><path d="M +1015.26727236,149.229650371 L 1023.15042949,137.075916402 " fill="rgb(67,180,184)" stroke="rgb(67,180,184)" stroke-width="2" /><path d="M +1023.15042949,137.075916402 L 1030.0184784,128.865512483 " fill="rgb(67,180,184)" stroke="rgb(67,180,184)" stroke-width="2" /><path d="M +1030.0184784,128.865512483 L 1032.33785025,122.341403238 " fill="rgb(67,180,184)" stroke="rgb(67,180,184)" stroke-width="2" /><path d="M +1032.33785025,122.341403238 L 1034.46980021,122.343329369 " fill="rgb(67,180,184)" stroke="rgb(67,180,184)" stroke-width="2" /><path d="M +1034.46980021,122.343329369 L 1036.41666955,123.449744835 " fill="rgb(67,180,184)" stroke="rgb(67,180,184)" stroke-width="2" /><path d="M +1036.41666955,123.449744835 L 1037.43251829,130.624155058 " fill="rgb(67,180,184)" stroke="rgb(67,180,184)" stroke-width="2" /><path d="M +1037.43251829,130.624155058 L 1037.83264495,141.52101542 " fill="rgb(67,180,184)" stroke="rgb(67,180,184)" stroke-width="2" /><path d="M +1037.83264495,141.52101542 L 1037.79322471,153.878057255 " fill="rgb(67,180,184)" stroke="rgb(67,180,184)" stroke-width="2" /><path d="M +1037.79322471,153.878057255 L 1038.99965968,164.093214526 " fill="rgb(67,180,184)" stroke="rgb(67,180,184)" stroke-width="2" /><path d="M +1038.99965968,164.093214526 L 1040.58612701,170.605432643 " fill="rgb(67,180,184)" stroke="rgb(67,180,184)" stroke-width="2" /><path d="M +1040.58612701,170.605432643 L 1044.42403849,172.513738974 " fill="rgb(67,180,184)" stroke="rgb(67,180,184)" stroke-width="2" /><path d="M +1044.42403849,172.513738974 L 1055.11460241,172.210200551 " fill="rgb(67,180,184)" stroke="rgb(67,180,184)" stroke-width="2" /><path d="M +1055.11460241,172.210200551 L 1065.77390607,163.963211897 " fill="rgb(67,180,184)" stroke="rgb(67,180,184)" stroke-width="2" /><path d="M +1065.77390607,163.963211897 L 1076.51232895,154.411549094 " fill="rgb(67,180,184)" stroke="rgb(67,180,184)" stroke-width="2" /><path d="M +1076.51232895,154.411549094 L 1084.4737732,147.002948048 " fill="rgb(67,180,184)" stroke="rgb(67,180,184)" stroke-width="2" /><path d="M +1084.4737732,147.002948048 L 1088.37204006,143.807597282 " fill="rgb(67,180,184)" stroke="rgb(67,180,184)" stroke-width="2" /><path d="M +1088.37204006,143.807597282 L 1093.14665612,145.523665818 " fill="rgb(67,180,184)" stroke="rgb(67,180,184)" stroke-width="2" /><path d="M +1093.14665612,145.523665818 L 1097.38525178,150.046661171 " fill="rgb(67,180,184)" stroke="rgb(67,180,184)" stroke-width="2" /><path d="M +1097.38525178,150.046661171 L 1099.50866323,156.391085061 " fill="rgb(67,180,184)" stroke="rgb(67,180,184)" stroke-width="2" /><path d="M +1099.50866323,156.391085061 L 1103.39779358,163.095292124 " fill="rgb(67,180,184)" stroke="rgb(67,180,184)" stroke-width="2" /><path d="M 1135.62579852,133.957923922 " fill="rgb(9,146,146)" stroke="rgb(9,146,146)" stroke-width="2" /><path d="M +1135.62579852,133.957923922 L 1132.11003494,136.148228618 " fill="rgb(9,146,146)" stroke="rgb(9,146,146)" stroke-width="2" /><path d="M +1132.11003494,136.148228618 L 1128.81813388,140.500852737 " fill="rgb(9,146,146)" stroke="rgb(9,146,146)" stroke-width="2" /><path d="M +1128.81813388,140.500852737 L 1124.82322853,145.175878975 " fill="rgb(9,146,146)" stroke="rgb(9,146,146)" stroke-width="2" /><path d="M +1124.82322853,145.175878975 L 1120.41614335,151.796790334 " fill="rgb(9,146,146)" stroke="rgb(9,146,146)" stroke-width="2" /><path d="M +1120.41614335,151.796790334 L 1117.34120231,157.484762642 " fill="rgb(9,146,146)" stroke="rgb(9,146,146)" stroke-width="2" /><path d="M +1117.34120231,157.484762642 L 1120.17439079,162.511753413 " fill="rgb(9,146,146)" stroke="rgb(9,146,146)" stroke-width="2" /><path d="M +1120.17439079,162.511753413 L 1122.56031703,163.619008708 " fill="rgb(9,146,146)" stroke="rgb(9,146,146)" stroke-width="2" /><path d="M +1122.56031703,163.619008708 L 1127.79182922,161.948928731 " fill="rgb(9,146,146)" stroke="rgb(9,146,146)" stroke-width="2" /><path d="M +1127.79182922,161.948928731 L 1132.49980938,157.357754606 " fill="rgb(9,146,146)" stroke="rgb(9,146,146)" stroke-width="2" /><path d="M +1132.49980938,157.357754606 L 1139.46936619,152.800001102 " fill="rgb(9,146,146)" stroke="rgb(9,146,146)" stroke-width="2" /><path d="M +1139.46936619,152.800001102 L 1142.61466216,146.20127638 " fill="rgb(9,146,146)" stroke="rgb(9,146,146)" stroke-width="2" /><path d="M +1142.61466216,146.20127638 L 1146.3236196,140.183927017 " fill="rgb(9,146,146)" stroke="rgb(9,146,146)" stroke-width="2" /><path d="M +1146.3236196,140.183927017 L 1146.40176289,137.833251106 " fill="rgb(9,146,146)" stroke="rgb(9,146,146)" stroke-width="2" /><path d="M +1146.40176289,137.833251106 L 1147.46139802,139.59649359 " fill="rgb(9,146,146)" stroke="rgb(9,146,146)" stroke-width="2" /><path d="M +1147.46139802,139.59649359 L 1145.88026069,142.424569177 " fill="rgb(9,146,146)" stroke="rgb(9,146,146)" stroke-width="2" /><path d="M +1145.88026069,142.424569177 L 1146.43686604,151.179645705 " fill="rgb(9,146,146)" stroke="rgb(9,146,146)" stroke-width="2" /><path d="M +1146.43686604,151.179645705 L 1146.30620988,163.274114775 " fill="rgb(9,146,146)" stroke="rgb(9,146,146)" stroke-width="2" /><path d="M +1146.30620988,163.274114775 L 1148.79988493,180.353986668 " fill="rgb(9,146,146)" stroke="rgb(9,146,146)" stroke-width="2" /><path d="M +1148.79988493,180.353986668 L 1151.97271021,200.452267575 " fill="rgb(9,146,146)" stroke="rgb(9,146,146)" stroke-width="2" /><path d="M +1151.97271021,200.452267575 L 1156.97191926,222.904958176 " fill="rgb(9,146,146)" stroke="rgb(9,146,146)" stroke-width="2" /><path d="M +1156.97191926,222.904958176 L 1162.38333257,241.716571498 " fill="rgb(9,146,146)" stroke="rgb(9,146,146)" stroke-width="2" /><path d="M +1162.38333257,241.716571498 L 1164.73241972,254.940387654 " fill="rgb(9,146,146)" stroke="rgb(9,146,146)" stroke-width="2" /><path d="M +1164.73241972,254.940387654 L 1162.85925241,262.051120448 " fill="rgb(9,146,146)" stroke="rgb(9,146,146)" stroke-width="2" /><path d="M +1162.85925241,262.051120448 L 1156.40247138,268.134920645 " fill="rgb(9,146,146)" stroke="rgb(9,146,146)" stroke-width="2" /><path d="M +1156.40247138,268.134920645 L 1149.23113259,271.566170501 " fill="rgb(9,146,146)" stroke="rgb(9,146,146)" stroke-width="2" /><path d="M +1149.23113259,271.566170501 L 1137.62065204,270.677496317 " fill="rgb(9,146,146)" stroke="rgb(9,146,146)" stroke-width="2" /><path d="M +1137.62065204,270.677496317 L 1127.53626497,267.150879326 " fill="rgb(9,146,146)" stroke="rgb(9,146,146)" stroke-width="2" /><path d="M +1127.53626497,267.150879326 L 1118.3809367,259.27072567 " fill="rgb(9,146,146)" stroke="rgb(9,146,146)" stroke-width="2" /><path d="M +1118.3809367,259.27072567 L 1113.87717756,250.9695254 " fill="rgb(9,146,146)" stroke="rgb(9,146,146)" stroke-width="2" /><path d="M +1113.87717756,250.9695254 L 1116.98208394,240.833900991 " fill="rgb(9,146,146)" stroke="rgb(9,146,146)" stroke-width="2" /><path d="M +1116.98208394,240.833900991 L 1123.39085581,226.299596849 " fill="rgb(9,146,146)" stroke="rgb(9,146,146)" stroke-width="2" /><path d="M +1123.39085581,226.299596849 L 1134.41049697,208.945573392 " fill="rgb(9,146,146)" stroke="rgb(9,146,146)" stroke-width="2" /><path d="M 1226.97070243,101.787570539 " fill="rgb(77,21,16)" stroke="rgb(77,21,16)" stroke-width="2" /><path d="M +1226.97070243,101.787570539 L 1224.25616922,109.634536329 " fill="rgb(77,21,16)" stroke="rgb(77,21,16)" stroke-width="2" /><path d="M +1224.25616922,109.634536329 L 1223.38838117,119.745638194 " fill="rgb(77,21,16)" stroke="rgb(77,21,16)" stroke-width="2" /><path d="M +1223.38838117,119.745638194 L 1221.65629404,133.726882758 " fill="rgb(77,21,16)" stroke="rgb(77,21,16)" stroke-width="2" /><path d="M +1221.65629404,133.726882758 L 1219.79269089,149.220349613 " fill="rgb(77,21,16)" stroke="rgb(77,21,16)" stroke-width="2" /><path d="M +1219.79269089,149.220349613 L 1215.96196594,163.111356321 " fill="rgb(77,21,16)" stroke="rgb(77,21,16)" stroke-width="2" /><path d="M +1215.96196594,163.111356321 L 1215.19591281,174.357039752 " fill="rgb(77,21,16)" stroke="rgb(77,21,16)" stroke-width="2" /><path d="M +1215.19591281,174.357039752 L 1217.49106029,181.809238019 " fill="rgb(77,21,16)" stroke="rgb(77,21,16)" stroke-width="2" /><path d="M +1217.49106029,181.809238019 L 1219.95536515,184.270975414 " fill="rgb(77,21,16)" stroke="rgb(77,21,16)" stroke-width="2" /><path d="M 1260.13965795,161.455151859 " fill="rgb(169,196,184)" stroke="rgb(169,196,184)" stroke-width="2" /><path d="M +1260.13965795,161.455151859 L 1262.59824956,168.502862873 " fill="rgb(169,196,184)" stroke="rgb(169,196,184)" stroke-width="2" /><path d="M +1262.59824956,168.502862873 L 1265.26829714,176.91673142 " fill="rgb(169,196,184)" stroke="rgb(169,196,184)" stroke-width="2" /><path d="M +1265.26829714,176.91673142 L 1268.2993179,183.490628424 " fill="rgb(169,196,184)" stroke="rgb(169,196,184)" stroke-width="2" /><path d="M +1268.2993179,183.490628424 L 1273.58261282,184.404409277 " fill="rgb(169,196,184)" stroke="rgb(169,196,184)" stroke-width="2" /><path d="M +1273.58261282,184.404409277 L 1280.62295789,182.094680118 " fill="rgb(169,196,184)" stroke="rgb(169,196,184)" stroke-width="2" /><path d="M +1280.62295789,182.094680118 L 1289.17591566,175.432955074 " fill="rgb(169,196,184)" stroke="rgb(169,196,184)" stroke-width="2" /><path d="M +1289.17591566,175.432955074 L 1297.71550948,167.185515213 " fill="rgb(169,196,184)" stroke="rgb(169,196,184)" stroke-width="2" /><path d="M +1297.71550948,167.185515213 L 1303.4733736,158.383052993 " fill="rgb(169,196,184)" stroke="rgb(169,196,184)" stroke-width="2" /><path d="M +1303.4733736,158.383052993 L 1308.89636213,154.791107821 " fill="rgb(169,196,184)" stroke="rgb(169,196,184)" stroke-width="2" /><path d="M +1308.89636213,154.791107821 L 1311.93388874,154.058092955 " fill="rgb(169,196,184)" stroke="rgb(169,196,184)" stroke-width="2" /><path d="M +1311.93388874,154.058092955 L 1315.13542468,156.127874377 " fill="rgb(169,196,184)" stroke="rgb(169,196,184)" stroke-width="2" /><path d="M +1315.13542468,156.127874377 L 1318.07428056,160.494196239 " fill="rgb(169,196,184)" stroke="rgb(169,196,184)" stroke-width="2" /><path d="M +1318.07428056,160.494196239 L 1318.8575712,168.014282408 " fill="rgb(169,196,184)" stroke="rgb(169,196,184)" stroke-width="2" /><path d="M +1318.8575712,168.014282408 L 1320.44008898,176.168764058 " fill="rgb(169,196,184)" stroke="rgb(169,196,184)" stroke-width="2" /><path d="M +1320.44008898,176.168764058 L 1320.79884483,181.915252629 " fill="rgb(169,196,184)" stroke="rgb(169,196,184)" stroke-width="2" /><path d="M +1320.79884483,181.915252629 L 1323.24544264,185.850635293 " fill="rgb(169,196,184)" stroke="rgb(169,196,184)" stroke-width="2" /><path d="M 1385.77750517,144.180951836 " fill="rgb(139,236,126)" stroke="rgb(139,236,126)" stroke-width="2" /><path d="M +1385.77750517,144.180951836 L 1381.77946104,152.001682046 " fill="rgb(139,236,126)" stroke="rgb(139,236,126)" stroke-width="2" /><path d="M +1381.77946104,152.001682046 L 1381.99035078,160.765408996 " fill="rgb(139,236,126)" stroke="rgb(139,236,126)" stroke-width="2" /><path d="M +1381.99035078,160.765408996 L 1382.80809537,167.247985127 " fill="rgb(139,236,126)" stroke="rgb(139,236,126)" stroke-width="2" /><path d="M +1382.80809537,167.247985127 L 1387.62485102,171.120596948 " fill="rgb(139,236,126)" stroke="rgb(139,236,126)" stroke-width="2" /><path d="M +1387.62485102,171.120596948 L 1394.77265254,171.943365085 " fill="rgb(139,236,126)" stroke="rgb(139,236,126)" stroke-width="2" /><path d="M +1394.77265254,171.943365085 L 1402.04010144,169.133916247 " fill="rgb(139,236,126)" stroke="rgb(139,236,126)" stroke-width="2" /><path d="M +1402.04010144,169.133916247 L 1409.0308167,162.48509978 " fill="rgb(139,236,126)" stroke="rgb(139,236,126)" stroke-width="2" /><path d="M +1409.0308167,162.48509978 L 1415.14725521,154.119101512 " fill="rgb(139,236,126)" stroke="rgb(139,236,126)" stroke-width="2" /><path d="M +1415.14725521,154.119101512 L 1419.38035712,146.027137983 " fill="rgb(139,236,126)" stroke="rgb(139,236,126)" stroke-width="2" /><path d="M +1419.38035712,146.027137983 L 1418.67197923,137.993534553 " fill="rgb(139,236,126)" stroke="rgb(139,236,126)" stroke-width="2" /><path d="M +1418.67197923,137.993534553 L 1416.90580852,131.446620571 " fill="rgb(139,236,126)" stroke="rgb(139,236,126)" stroke-width="2" /><path d="M +1416.90580852,131.446620571 L 1413.06939848,126.559598791 " fill="rgb(139,236,126)" stroke="rgb(139,236,126)" stroke-width="2" /><path d="M +1413.06939848,126.559598791 L 1409.4791729,124.310011464 " fill="rgb(139,236,126)" stroke="rgb(139,236,126)" stroke-width="2" /><path d="M +1409.4791729,124.310011464 L 1406.15566798,123.825511123 " fill="rgb(139,236,126)" stroke="rgb(139,236,126)" stroke-width="2" /><path d="M +1406.15566798,123.825511123 L 1406.03779135,125.299720849 " fill="rgb(139,236,126)" stroke="rgb(139,236,126)" stroke-width="2" /><path d="M +1406.03779135,125.299720849 L 1404.93385656,126.769609983 " fill="rgb(139,236,126)" stroke="rgb(139,236,126)" stroke-width="2" /><path d="M 1478.98965223,108.739119108 " fill="rgb(237,32,222)" stroke="rgb(237,32,222)" stroke-width="2" /><path d="M +1478.98965223,108.739119108 L 1480.2933125,109.712431665 " fill="rgb(237,32,222)" stroke="rgb(237,32,222)" stroke-width="2" /><path d="M +1480.2933125,109.712431665 L 1481.891212,117.903085585 " fill="rgb(237,32,222)" stroke="rgb(237,32,222)" stroke-width="2" /><path d="M +1481.891212,117.903085585 L 1483.8647042,130.814151402 " fill="rgb(237,32,222)" stroke="rgb(237,32,222)" stroke-width="2" /><path d="M +1483.8647042,130.814151402 L 1484.08654345,142.08622777 " fill="rgb(237,32,222)" stroke="rgb(237,32,222)" stroke-width="2" /><path d="M +1484.08654345,142.08622777 L 1483.81106881,152.116199369 " fill="rgb(237,32,222)" stroke="rgb(237,32,222)" stroke-width="2" /><path d="M +1483.81106881,152.116199369 L 1485.21650923,157.779096003 " fill="rgb(237,32,222)" stroke="rgb(237,32,222)" stroke-width="2" /><path d="M +1485.21650923,157.779096003 L 1487.87569894,159.62758937 " fill="rgb(237,32,222)" stroke="rgb(237,32,222)" stroke-width="2" /><path d="M +1487.87569894,159.62758937 L 1489.9515195,157.62839296 " fill="rgb(237,32,222)" stroke="rgb(237,32,222)" stroke-width="2" /><path d="M +1489.9515195,157.62839296 L 1489.84213077,150.126508261 " fill="rgb(237,32,222)" stroke="rgb(237,32,222)" stroke-width="2" /><path d="M +1489.84213077,150.126508261 L 1514.85791646,118.56109717 " fill="rgb(237,32,222)" stroke="rgb(237,32,222)" stroke-width="2" /><path d="M +1514.85791646,118.56109717 L 1520.73374353,114.68030789 " fill="rgb(237,32,222)" stroke="rgb(237,32,222)" stroke-width="2" /><path d="M +1520.73374353,114.68030789 L 1524.60042499,115.720658312 " fill="rgb(237,32,222)" stroke="rgb(237,32,222)" stroke-width="2" /><path d="M +1524.60042499,115.720658312 L 1531.06835626,119.358749996 " fill="rgb(237,32,222)" stroke="rgb(237,32,222)" stroke-width="2" /><path d="M 1769.06687997,87.3512917859 " fill="rgb(87,19,84)" stroke="rgb(87,19,84)" stroke-width="2" /><path d="M +1769.06687997,87.3512917859 L 1764.23732452,85.5709435148 " fill="rgb(87,19,84)" stroke="rgb(87,19,84)" stroke-width="2" /><path d="M +1764.23732452,85.5709435148 L 1758.9413666,86.4685961706 " fill="rgb(87,19,84)" stroke="rgb(87,19,84)" stroke-width="2" /><path d="M +1758.9413666,86.4685961706 L 1754.44517247,88.7845058841 " fill="rgb(87,19,84)" stroke="rgb(87,19,84)" stroke-width="2" /><path d="M +1754.44517247,88.7845058841 L 1751.23226009,94.9301792783 " fill="rgb(87,19,84)" stroke="rgb(87,19,84)" stroke-width="2" /><path d="M +1751.23226009,94.9301792783 L 1748.36494349,103.791850964 " fill="rgb(87,19,84)" stroke="rgb(87,19,84)" stroke-width="2" /><path d="M +1748.36494349,103.791850964 L 1748.54984486,113.25544254 " fill="rgb(87,19,84)" stroke="rgb(87,19,84)" stroke-width="2" /><path d="M +1748.54984486,113.25544254 L 1749.8346358,121.947834055 " fill="rgb(87,19,84)" stroke="rgb(87,19,84)" stroke-width="2" /><path d="M +1749.8346358,121.947834055 L 1753.02747125,130.613179962 " fill="rgb(87,19,84)" stroke="rgb(87,19,84)" stroke-width="2" /><path d="M +1753.02747125,130.613179962 L 1755.6377309,135.637507002 " fill="rgb(87,19,84)" stroke="rgb(87,19,84)" stroke-width="2" /><path d="M +1755.6377309,135.637507002 L 1757.29820529,140.098770122 " fill="rgb(87,19,84)" stroke="rgb(87,19,84)" stroke-width="2" /><path d="M +1757.29820529,140.098770122 L 1753.79271964,142.459057729 " fill="rgb(87,19,84)" stroke="rgb(87,19,84)" stroke-width="2" /><path d="M +1753.79271964,142.459057729 L 1746.49280766,142.160617626 " fill="rgb(87,19,84)" stroke="rgb(87,19,84)" stroke-width="2" /><path d="M +1746.49280766,142.160617626 L 1736.7759029,141.486312143 " fill="rgb(87,19,84)" stroke="rgb(87,19,84)" stroke-width="2" /><path d="M +1736.7759029,141.486312143 L 1729.86072997,141.659354187 " fill="rgb(87,19,84)" stroke="rgb(87,19,84)" stroke-width="2" /><path d="M +1729.86072997,141.659354187 L 1722.82422701,141.198525867 " fill="rgb(87,19,84)" stroke="rgb(87,19,84)" stroke-width="2" /><path d="M +1722.82422701,141.198525867 L 1720.39572934,141.927715233 " fill="rgb(87,19,84)" stroke="rgb(87,19,84)" stroke-width="2" /><path d="M 1856.16546849,75.098534516 " fill="rgb(205,24,61)" stroke="rgb(205,24,61)" stroke-width="2" /><path d="M +1856.16546849,75.098534516 L 1848.53084901,79.4515222227 " fill="rgb(205,24,61)" stroke="rgb(205,24,61)" stroke-width="2" /><path d="M +1848.53084901,79.4515222227 L 1839.69593147,87.6313573038 " fill="rgb(205,24,61)" stroke="rgb(205,24,61)" stroke-width="2" /><path d="M +1839.69593147,87.6313573038 L 1829.09303168,101.90906345 " fill="rgb(205,24,61)" stroke="rgb(205,24,61)" stroke-width="2" /><path d="M +1829.09303168,101.90906345 L 1816.79017523,115.240570894 " fill="rgb(205,24,61)" stroke="rgb(205,24,61)" stroke-width="2" /><path d="M +1816.79017523,115.240570894 L 1806.56833509,125.293646446 " fill="rgb(205,24,61)" stroke="rgb(205,24,61)" stroke-width="2" /><path d="M +1806.56833509,125.293646446 L 1803.58635643,131.736983052 " fill="rgb(205,24,61)" stroke="rgb(205,24,61)" stroke-width="2" /><path d="M +1803.58635643,131.736983052 L 1802.72180254,134.42836552 " fill="rgb(205,24,61)" stroke="rgb(205,24,61)" stroke-width="2" /><path d="M +1802.72180254,134.42836552 L 1807.49017144,131.670971802 " fill="rgb(205,24,61)" stroke="rgb(205,24,61)" stroke-width="2" /><path d="M +1807.49017144,131.670971802 L 1816.05385089,123.912132672 " fill="rgb(205,24,61)" stroke="rgb(205,24,61)" stroke-width="2" /><path d="M +1816.05385089,123.912132672 L 1829.30637145,115.019089869 " fill="rgb(205,24,61)" stroke="rgb(205,24,61)" stroke-width="2" /><path d="M +1829.30637145,115.019089869 L 1839.08096636,103.047761611 " fill="rgb(205,24,61)" stroke="rgb(205,24,61)" stroke-width="2" /><path d="M +1839.08096636,103.047761611 L 1851.01657713,90.30395954 " fill="rgb(205,24,61)" stroke="rgb(205,24,61)" stroke-width="2" /><path d="M +1851.01657713,90.30395954 L 1857.78009916,81.26774042 " fill="rgb(205,24,61)" stroke="rgb(205,24,61)" stroke-width="2" /><path d="M +1857.78009916,81.26774042 L 1862.54416579,77.7951007997 " fill="rgb(205,24,61)" stroke="rgb(205,24,61)" stroke-width="2" /><path d="M +1862.54416579,77.7951007997 L 1864.88909716,80.0561283444 " fill="rgb(205,24,61)" stroke="rgb(205,24,61)" stroke-width="2" /><path d="M +1864.88909716,80.0561283444 L 1866.94337124,85.304792962 " fill="rgb(205,24,61)" stroke="rgb(205,24,61)" stroke-width="2" /><path d="M +1866.94337124,85.304792962 L 1865.76134691,95.7910011624 " fill="rgb(205,24,61)" stroke="rgb(205,24,61)" stroke-width="2" /><path d="M +1865.76134691,95.7910011624 L 1865.04216494,108.440247617 " fill="rgb(205,24,61)" stroke="rgb(205,24,61)" stroke-width="2" /><path d="M +1865.04216494,108.440247617 L 1869.35674163,117.634844026 " fill="rgb(205,24,61)" stroke="rgb(205,24,61)" stroke-width="2" /><path d="M +1869.35674163,117.634844026 L 1870.30167306,122.63663753 " fill="rgb(205,24,61)" stroke="rgb(205,24,61)" stroke-width="2" /><path d="M +1870.30167306,122.63663753 L 1876.01939762,122.484225101 " fill="rgb(205,24,61)" stroke="rgb(205,24,61)" stroke-width="2" /><path d="M 1926.69818485,73.5054815476 " fill="rgb(148,16,71)" stroke="rgb(148,16,71)" stroke-width="2" /><path d="M +1926.69818485,73.5054815476 L 1926.67822485,76.5512395566 " fill="rgb(148,16,71)" stroke="rgb(148,16,71)" stroke-width="2" /><path d="M +1926.67822485,76.5512395566 L 1925.34894814,83.927474088 " fill="rgb(148,16,71)" stroke="rgb(148,16,71)" stroke-width="2" /><path d="M +1925.34894814,83.927474088 L 1921.642917,93.72836358 " fill="rgb(148,16,71)" stroke="rgb(148,16,71)" stroke-width="2" /><path d="M +1921.642917,93.72836358 L 1919.82048621,102.864876456 " fill="rgb(148,16,71)" stroke="rgb(148,16,71)" stroke-width="2" /><path d="M +1919.82048621,102.864876456 L 1918.96464122,108.498473233 " fill="rgb(148,16,71)" stroke="rgb(148,16,71)" stroke-width="2" /><path d="M +1918.96464122,108.498473233 L 1921.09495682,111.455113358 " fill="rgb(148,16,71)" stroke="rgb(148,16,71)" stroke-width="2" /><path d="M +1921.09495682,111.455113358 L 1921.87137869,112.363336376 " fill="rgb(148,16,71)" stroke="rgb(148,16,71)" stroke-width="2" /><path d="M +1921.87137869,112.363336376 L 1926.99358252,110.805048785 " fill="rgb(148,16,71)" stroke="rgb(148,16,71)" stroke-width="2" /><path d="M 1948.87995032,50.8224724149 " fill="rgb(39,155,164)" stroke="rgb(39,155,164)" stroke-width="2" /><path d="M +1948.87995032,50.8224724149 L 1949.83862502,52.3160785352 " fill="rgb(39,155,164)" stroke="rgb(39,155,164)" stroke-width="2" /><path d="M +1949.83862502,52.3160785352 L 1952.59219569,55.150301448 " fill="rgb(39,155,164)" stroke="rgb(39,155,164)" stroke-width="2" /><path d="M +1952.59219569,55.150301448 L 1951.2253019,59.0443333899 " fill="rgb(39,155,164)" stroke="rgb(39,155,164)" stroke-width="2" /><path d="M 2051.55561653,33.9595732008 " fill="rgb(12,154,95)" stroke="rgb(12,154,95)" stroke-width="2" /><path d="M +2051.55561653,33.9595732008 L 2052.30260615,38.6013972675 " fill="rgb(12,154,95)" stroke="rgb(12,154,95)" stroke-width="2" /><path d="M +2052.30260615,38.6013972675 L 2050.85443353,49.032425872 " fill="rgb(12,154,95)" stroke="rgb(12,154,95)" stroke-width="2" /><path d="M +2050.85443353,49.032425872 L 2050.08655538,64.4527125274 " fill="rgb(12,154,95)" stroke="rgb(12,154,95)" stroke-width="2" /><path d="M +2050.08655538,64.4527125274 L 2044.05251255,84.4984245216 " fill="rgb(12,154,95)" stroke="rgb(12,154,95)" stroke-width="2" /><path d="M +2044.05251255,84.4984245216 L 2041.99771111,103.293633453 " fill="rgb(12,154,95)" stroke="rgb(12,154,95)" stroke-width="2" /><path d="M +2041.99771111,103.293633453 L 2036.93280106,116.48669242 " fill="rgb(12,154,95)" stroke="rgb(12,154,95)" stroke-width="2" /><path d="M +2036.93280106,116.48669242 L 2035.26978825,126.102598301 " fill="rgb(12,154,95)" stroke="rgb(12,154,95)" stroke-width="2" /><path d="M +2035.26978825,126.102598301 L 2035.92039881,130.291458658 " fill="rgb(12,154,95)" stroke="rgb(12,154,95)" stroke-width="2" /><path d="M 2024.20287428,67.6362147843 " fill="rgb(110,145,24)" stroke="rgb(110,145,24)" stroke-width="2" /><path d="M +2024.20287428,67.6362147843 L 2031.49986324,62.692725948 " fill="rgb(110,145,24)" stroke="rgb(110,145,24)" stroke-width="2" /><path d="M +2031.49986324,62.692725948 L 2047.9469758,56.5951171433 " fill="rgb(110,145,24)" stroke="rgb(110,145,24)" stroke-width="2" /><path d="M +2047.9469758,56.5951171433 L 2068.58717022,51.9933587228 " fill="rgb(110,145,24)" stroke="rgb(110,145,24)" stroke-width="2" /><path d="M +2068.58717022,51.9933587228 L 2087.49333319,48.9790752446 " fill="rgb(110,145,24)" stroke="rgb(110,145,24)" stroke-width="2" /><path d="M 2062.06054625,134.2258194 " fill="rgb(34,191,22)" stroke="rgb(34,191,22)" stroke-width="2" /><path d="M +2062.06054625,134.2258194 L 2070.86241422,137.761360994 " fill="rgb(34,191,22)" stroke="rgb(34,191,22)" stroke-width="2" /><path d="M +2070.86241422,137.761360994 L 2083.23907552,137.024116359 " fill="rgb(34,191,22)" stroke="rgb(34,191,22)" stroke-width="2" /><path d="M +2083.23907552,137.024116359 L 2099.13325486,133.808199904 " fill="rgb(34,191,22)" stroke="rgb(34,191,22)" stroke-width="2" /><path d="M +2099.13325486,133.808199904 L 2113.81822882,130.813886366 " fill="rgb(34,191,22)" stroke="rgb(34,191,22)" stroke-width="2" /><path d="M +2113.81822882,130.813886366 L 2125.44560132,126.663394413 " fill="rgb(34,191,22)" stroke="rgb(34,191,22)" stroke-width="2" /><path d="M +2125.44560132,126.663394413 L 2137.15618906,121.523491583 " fill="rgb(34,191,22)" stroke="rgb(34,191,22)" stroke-width="2" /><path d="M +2137.15618906,121.523491583 L 2146.32370767,114.096598468 " fill="rgb(34,191,22)" stroke="rgb(34,191,22)" stroke-width="2" /><path d="M +2146.32370767,114.096598468 L 2153.06798038,104.758844814 " fill="rgb(34,191,22)" stroke="rgb(34,191,22)" stroke-width="2" /><path d="M +2153.06798038,104.758844814 L 2154.41810516,94.9250285243 " fill="rgb(34,191,22)" stroke="rgb(34,191,22)" stroke-width="2" /><path d="M +2154.41810516,94.9250285243 L 2154.97913839,87.1495561217 " fill="rgb(34,191,22)" stroke="rgb(34,191,22)" stroke-width="2" /><path d="M +2154.97913839,87.1495561217 L 2153.65509198,82.1803669547 " fill="rgb(34,191,22)" stroke="rgb(34,191,22)" stroke-width="2" /><path d="M +2153.65509198,82.1803669547 L 2149.36042355,80.1436600005 " fill="rgb(34,191,22)" stroke="rgb(34,191,22)" stroke-width="2" /><path d="M +2149.36042355,80.1436600005 L 2141.64538549,82.3782424544 " fill="rgb(34,191,22)" stroke="rgb(34,191,22)" stroke-width="2" /><path d="M +2141.64538549,82.3782424544 L 2135.09511219,89.5665721511 " fill="rgb(34,191,22)" stroke="rgb(34,191,22)" stroke-width="2" /><path d="M +2135.09511219,89.5665721511 L 2127.66339229,136.043155632 " fill="rgb(34,191,22)" stroke="rgb(34,191,22)" stroke-width="2" /><path d="M +2127.66339229,136.043155632 L 2129.77887542,145.392398677 " fill="rgb(34,191,22)" stroke="rgb(34,191,22)" stroke-width="2" /><path d="M +2129.77887542,145.392398677 L 2136.90980227,148.922428927 " fill="rgb(34,191,22)" stroke="rgb(34,191,22)" stroke-width="2" /><path d="M +2136.90980227,148.922428927 L 2152.06835182,149.456796042 " fill="rgb(34,191,22)" stroke="rgb(34,191,22)" stroke-width="2" /><path d="M 2213.48742874,112.908214918 " fill="rgb(91,201,187)" stroke="rgb(91,201,187)" stroke-width="2" /><path d="M +2213.48742874,112.908214918 L 2212.00361938,123.857390276 " fill="rgb(91,201,187)" stroke="rgb(91,201,187)" stroke-width="2" /><path d="M +2212.00361938,123.857390276 L 2209.2628801,137.33216106 " fill="rgb(91,201,187)" stroke="rgb(91,201,187)" stroke-width="2" /><path d="M +2209.2628801,137.33216106 L 2206.60664142,147.685613028 " fill="rgb(91,201,187)" stroke="rgb(91,201,187)" stroke-width="2" /><path d="M +2206.60664142,147.685613028 L 2203.90713544,151.411545268 " fill="rgb(91,201,187)" stroke="rgb(91,201,187)" stroke-width="2" /><path d="M +2203.90713544,151.411545268 L 2202.54959197,150.864585034 " fill="rgb(91,201,187)" stroke="rgb(91,201,187)" stroke-width="2" /><path d="M +2202.54959197,150.864585034 L 2202.35999163,149.109361461 " fill="rgb(91,201,187)" stroke="rgb(91,201,187)" stroke-width="2" /><path d="M +2202.35999163,149.109361461 L 2204.05556823,142.203643016 " fill="rgb(91,201,187)" stroke="rgb(91,201,187)" stroke-width="2" /><path d="M +2204.05556823,142.203643016 L 2207.60168816,131.659905604 " fill="rgb(91,201,187)" stroke="rgb(91,201,187)" stroke-width="2" /><path d="M +2207.60168816,131.659905604 L 2217.34268929,120.554854563 " fill="rgb(91,201,187)" stroke="rgb(91,201,187)" stroke-width="2" /><path d="M +2217.34268929,120.554854563 L 2226.13498177,109.165273598 " fill="rgb(91,201,187)" stroke="rgb(91,201,187)" stroke-width="2" /><path d="M +2226.13498177,109.165273598 L 2237.14241828,99.3694850718 " fill="rgb(91,201,187)" stroke="rgb(91,201,187)" stroke-width="2" /><path d="M +2237.14241828,99.3694850718 L 2245.61747874,95.8378487741 " fill="rgb(91,201,187)" stroke="rgb(91,201,187)" stroke-width="2" /><path d="M 2286.02091636,112.79414951 " fill="rgb(16,124,165)" stroke="rgb(16,124,165)" stroke-width="2" /><path d="M +2286.02091636,112.79414951 L 2282.67405506,113.689851827 " fill="rgb(16,124,165)" stroke="rgb(16,124,165)" stroke-width="2" /><path d="M +2282.67405506,113.689851827 L 2277.78464998,118.41694004 " fill="rgb(16,124,165)" stroke="rgb(16,124,165)" stroke-width="2" /><path d="M +2277.78464998,118.41694004 L 2269.89056553,124.613777465 " fill="rgb(16,124,165)" stroke="rgb(16,124,165)" stroke-width="2" /><path d="M +2269.89056553,124.613777465 L 2264.64596476,132.336764998 " fill="rgb(16,124,165)" stroke="rgb(16,124,165)" stroke-width="2" /><path d="M +2264.64596476,132.336764998 L 2262.24834363,139.78248722 " fill="rgb(16,124,165)" stroke="rgb(16,124,165)" stroke-width="2" /><path d="M +2262.24834363,139.78248722 L 2263.82997985,144.27922166 " fill="rgb(16,124,165)" stroke="rgb(16,124,165)" stroke-width="2" /><path d="M +2263.82997985,144.27922166 L 2268.49997307,148.278847999 " fill="rgb(16,124,165)" stroke="rgb(16,124,165)" stroke-width="2" /><path d="M +2268.49997307,148.278847999 L 2278.87027051,140.838522381 " fill="rgb(16,124,165)" stroke="rgb(16,124,165)" stroke-width="2" /><path d="M +2278.87027051,140.838522381 L 2286.32331933,132.913097209 " fill="rgb(16,124,165)" stroke="rgb(16,124,165)" stroke-width="2" /><path d="M +2286.32331933,132.913097209 L 2293.31458654,127.160480088 " fill="rgb(16,124,165)" stroke="rgb(16,124,165)" stroke-width="2" /><path d="M +2293.31458654,127.160480088 L 2293.11087455,119.622792668 " fill="rgb(16,124,165)" stroke="rgb(16,124,165)" stroke-width="2" /><path d="M +2293.11087455,119.622792668 L 2289.75550379,114.578335947 " fill="rgb(16,124,165)" stroke="rgb(16,124,165)" stroke-width="2" /><path d="M +2289.75550379,114.578335947 L 2284.82013877,112.173180795 " fill="rgb(16,124,165)" stroke="rgb(16,124,165)" stroke-width="2" /><path d="M +2284.82013877,112.173180795 L 2281.57077338,112.527248851 " fill="rgb(16,124,165)" stroke="rgb(16,124,165)" stroke-width="2" /><path d="M +2281.57077338,112.527248851 L 2279.8715521,113.552243627 " fill="rgb(16,124,165)" stroke="rgb(16,124,165)" stroke-width="2" /><path d="M +2279.8715521,113.552243627 L 2281.32102753,113.17418038 " fill="rgb(16,124,165)" stroke="rgb(16,124,165)" stroke-width="2" /><path d="M 2332.66084935,101.805672041 " fill="rgb(66,206,187)" stroke="rgb(66,206,187)" stroke-width="2" /><path d="M +2332.66084935,101.805672041 L 2328.97714968,113.040056816 " fill="rgb(66,206,187)" stroke="rgb(66,206,187)" stroke-width="2" /><path d="M +2328.97714968,113.040056816 L 2328.12105845,125.32808005 " fill="rgb(66,206,187)" stroke="rgb(66,206,187)" stroke-width="2" /><path d="M +2328.12105845,125.32808005 L 2325.37239711,135.511845938 " fill="rgb(66,206,187)" stroke="rgb(66,206,187)" stroke-width="2" /><path d="M +2325.37239711,135.511845938 L 2328.7631471,143.938331 " fill="rgb(66,206,187)" stroke="rgb(66,206,187)" stroke-width="2" /><path d="M +2328.7631471,143.938331 L 2334.00165688,147.231600872 " fill="rgb(66,206,187)" stroke="rgb(66,206,187)" stroke-width="2" /><path d="M +2334.00165688,147.231600872 L 2341.53995882,146.586153499 " fill="rgb(66,206,187)" stroke="rgb(66,206,187)" stroke-width="2" /><path d="M +2341.53995882,146.586153499 L 2350.59208284,142.535170308 " fill="rgb(66,206,187)" stroke="rgb(66,206,187)" stroke-width="2" /><path d="M +2350.59208284,142.535170308 L 2356.86338197,134.605151406 " fill="rgb(66,206,187)" stroke="rgb(66,206,187)" stroke-width="2" /><path d="M +2356.86338197,134.605151406 L 2363.85270725,126.27215623 " fill="rgb(66,206,187)" stroke="rgb(66,206,187)" stroke-width="2" /><path d="M +2363.85270725,126.27215623 L 2368.59854291,118.384021512 " fill="rgb(66,206,187)" stroke="rgb(66,206,187)" stroke-width="2" /><path d="M +2368.59854291,118.384021512 L 2370.150122,111.993800393 " fill="rgb(66,206,187)" stroke="rgb(66,206,187)" stroke-width="2" /><path d="M 2423.2472318,32.4308931743 " fill="rgb(104,113,52)" stroke="rgb(104,113,52)" stroke-width="2" /><path d="M +2423.2472318,32.4308931743 L 2422.94969867,30.9908048724 " fill="rgb(104,113,52)" stroke="rgb(104,113,52)" stroke-width="2" /><path d="M +2422.94969867,30.9908048724 L 2425.63929687,34.8730759238 " fill="rgb(104,113,52)" stroke="rgb(104,113,52)" stroke-width="2" /><path d="M +2425.63929687,34.8730759238 L 2425.00570025,43.7998114442 " fill="rgb(104,113,52)" stroke="rgb(104,113,52)" stroke-width="2" /><path d="M +2425.00570025,43.7998114442 L 2420.49876209,57.5035081719 " fill="rgb(104,113,52)" stroke="rgb(104,113,52)" stroke-width="2" /><path d="M +2420.49876209,57.5035081719 L 2417.33809944,73.2692323541 " fill="rgb(104,113,52)" stroke="rgb(104,113,52)" stroke-width="2" /><path d="M +2417.33809944,73.2692323541 L 2412.04837675,90.2975128507 " fill="rgb(104,113,52)" stroke="rgb(104,113,52)" stroke-width="2" /><path d="M +2412.04837675,90.2975128507 L 2407.88828875,105.46641334 " fill="rgb(104,113,52)" stroke="rgb(104,113,52)" stroke-width="2" /><path d="M +2407.88828875,105.46641334 L 2403.79265453,118.69090899 " fill="rgb(104,113,52)" stroke="rgb(104,113,52)" stroke-width="2" /></svg>