<?xml version="1.0" encoding="utf-8" ?>
<svg baseProfile="full" height="400.500007346" version="1.1" width="1527.49999825" xmlns="http://www.w3.org/2000/svg" xmlns:ev="http://www.w3.org/2001/xml-events" xmlns:xlink="http://www.w3.org/1999/xlink"><defs /><rect fill="white" height="400.500007346" width="1527.49999825" x="0" y="0" /><path d="M 75.0,212.000007629 " fill="rgb(35,56,120)" stroke="rgb(35,56,120)" stroke-width="2" /><path d="M +75.0,212.000007629 L 75.5000000075,216.000007689 " fill="rgb(35,56,120)" stroke="rgb(35,56,120)" stroke-width="2" /><path d="M +75.5000000075,216.000007689 L 76.0000000149,222.000007927 " fill="rgb(35,56,120)" stroke="rgb(35,56,120)" stroke-width="2" /><path d="M +76.0000000149,222.000007927 L 76.5000000224,232.500007451 " fill="rgb(35,56,120)" stroke="rgb(35,56,120)" stroke-width="2" /><path d="M +76.5000000224,232.500007451 L 77.0000000298,244.500007927 " fill="rgb(35,56,120)" stroke="rgb(35,56,120)" stroke-width="2" /><path d="M +77.0000000298,244.500007927 L 79.5000000298,261.000007689 " fill="rgb(35,56,120)" stroke="rgb(35,56,120)" stroke-width="2" /><path d="M +79.5000000298,261.000007689 L 82.500000149,276.000007689 " fill="rgb(35,56,120)" stroke="rgb(35,56,120)" stroke-width="2" /><path d="M +82.500000149,276.000007689 L 85.5000002682,292.500007451 " fill="rgb(35,56,120)" stroke="rgb(35,56,120)" stroke-width="2" /><path d="M +85.5000002682,292.500007451 L 88.5000003874,309.000007212 " fill="rgb(35,56,120)" stroke="rgb(35,56,120)" stroke-width="2" /><path d="M +88.5000003874,309.000007212 L 90.5000004172,325.500006974 " fill="rgb(35,56,120)" stroke="rgb(35,56,120)" stroke-width="2" /><path d="M +90.5000004172,325.500006974 L 91.5000004321,341.500007212 " fill="rgb(35,56,120)" stroke="rgb(35,56,120)" stroke-width="2" /><path d="M +91.5000004321,341.500007212 L 92.0000004396,356.000007689 " fill="rgb(35,56,120)" stroke="rgb(35,56,120)" stroke-width="2" /><path d="M +92.0000004396,356.000007689 L 94.0000004694,370.500008166 " fill="rgb(35,56,120)" stroke="rgb(35,56,120)" stroke-width="2" /><path d="M 292.999996655,297.500006258 " fill="rgb(164,63,212)" stroke="rgb(164,63,212)" stroke-width="2" /><path d="M +292.999996655,297.500006258 L 287.999996655,294.000006318 " fill="rgb(164,63,212)" stroke="rgb(164,63,212)" stroke-width="2" /><path d="M +287.999996655,294.000006318 L 280.999996774,292.000006288 " fill="rgb(164,63,212)" stroke="rgb(164,63,212)" stroke-width="2" /><path d="M +280.999996774,292.000006288 L 271.999997012,291.000006273 " fill="rgb(164,63,212)" stroke="rgb(164,63,212)" stroke-width="2" /><path d="M +271.999997012,291.000006273 L 261.999997012,291.000006273 " fill="rgb(164,63,212)" stroke="rgb(164,63,212)" stroke-width="2" /><path d="M +261.999997012,291.000006273 L 253.499996774,299.500006512 " fill="rgb(164,63,212)" stroke="rgb(164,63,212)" stroke-width="2" /><path d="M +253.499996774,299.500006512 L 243.499996774,305.50000675 " fill="rgb(164,63,212)" stroke="rgb(164,63,212)" stroke-width="2" /><path d="M +243.499996774,305.50000675 L 235.499996655,317.500007227 " fill="rgb(164,63,212)" stroke="rgb(164,63,212)" stroke-width="2" /><path d="M +235.499996655,317.500007227 L 230.999996774,333.00000675 " fill="rgb(164,63,212)" stroke="rgb(164,63,212)" stroke-width="2" /><path d="M +230.999996774,333.00000675 L 230.499996766,349.500006512 " fill="rgb(164,63,212)" stroke="rgb(164,63,212)" stroke-width="2" /><path d="M +230.499996766,349.500006512 L 233.999996707,361.500006989 " fill="rgb(164,63,212)" stroke="rgb(164,63,212)" stroke-width="2" /><path d="M +233.999996707,361.500006989 L 239.999996945,369.500007108 " fill="rgb(164,63,212)" stroke="rgb(164,63,212)" stroke-width="2" /><path d="M +239.999996945,369.500007108 L 248.999996707,375.500007346 " fill="rgb(164,63,212)" stroke="rgb(164,63,212)" stroke-width="2" /><path d="M +248.999996707,375.500007346 L 258.999996707,375.500007346 " fill="rgb(164,63,212)" stroke="rgb(164,63,212)" stroke-width="2" /><path d="M +258.999996707,375.500007346 L 269.999996945,373.000007346 " fill="rgb(164,63,212)" stroke="rgb(164,63,212)" stroke-width="2" /><path d="M +269.999996945,373.000007346 L 281.999997422,368.000007346 " fill="rgb(164,63,212)" stroke="rgb(164,63,212)" stroke-width="2" /><path d="M +281.999997422,368.000007346 L 292.999997661,359.500007108 " fill="rgb(164,63,212)" stroke="rgb(164,63,212)" stroke-width="2" /><path d="M 313.499997184,219.500007108 " fill="rgb(141,231,98)" stroke="rgb(141,231,98)" stroke-width="2" /><path d="M +313.499997184,219.500007108 L 310.999997184,219.500007108 " fill="rgb(141,231,98)" stroke="rgb(141,231,98)" stroke-width="2" /><path d="M +310.999997184,219.500007108 L 309.499997124,220.000007115 " fill="rgb(141,231,98)" stroke="rgb(141,231,98)" stroke-width="2" /><path d="M +309.499997124,220.000007115 L 307.499997094,228.000007235 " fill="rgb(141,231,98)" stroke="rgb(141,231,98)" stroke-width="2" /><path d="M +307.499997094,228.000007235 L 306.999997087,242.500007711 " fill="rgb(141,231,98)" stroke="rgb(141,231,98)" stroke-width="2" /><path d="M +306.999997087,242.500007711 L 306.499997079,258.50000795 " fill="rgb(141,231,98)" stroke="rgb(141,231,98)" stroke-width="2" /><path d="M +306.499997079,258.50000795 L 306.999997087,278.50000795 " fill="rgb(141,231,98)" stroke="rgb(141,231,98)" stroke-width="2" /><path d="M +306.999997087,278.50000795 L 307.999997102,298.50000795 " fill="rgb(141,231,98)" stroke="rgb(141,231,98)" stroke-width="2" /><path d="M +307.999997102,298.50000795 L 310.999997221,318.50000795 " fill="rgb(141,231,98)" stroke="rgb(141,231,98)" stroke-width="2" /><path d="M +310.999997221,318.50000795 L 315.999997221,336.00000795 " fill="rgb(141,231,98)" stroke="rgb(141,231,98)" stroke-width="2" /><path d="M +315.999997221,336.00000795 L 320.499997102,350.000007711 " fill="rgb(141,231,98)" stroke="rgb(141,231,98)" stroke-width="2" /><path d="M +320.499997102,350.000007711 L 327.999997102,363.000007235 " fill="rgb(141,231,98)" stroke="rgb(141,231,98)" stroke-width="2" /><path d="M +327.999997102,363.000007235 L 335.999997221,370.500007235 " fill="rgb(141,231,98)" stroke="rgb(141,231,98)" stroke-width="2" /><path d="M +335.999997221,370.500007235 L 342.999997102,369.50000722 " fill="rgb(141,231,98)" stroke="rgb(141,231,98)" stroke-width="2" /><path d="M +342.999997102,369.50000722 L 351.999996863,368.500007205 " fill="rgb(141,231,98)" stroke="rgb(141,231,98)" stroke-width="2" /><path d="M +351.999996863,368.500007205 L 359.999996983,362.000007443 " fill="rgb(141,231,98)" stroke="rgb(141,231,98)" stroke-width="2" /><path d="M +359.999996983,362.000007443 L 368.499997221,352.500007562 " fill="rgb(141,231,98)" stroke="rgb(141,231,98)" stroke-width="2" /><path d="M 380.499997698,286.000006609 " fill="rgb(141,78,186)" stroke="rgb(141,78,186)" stroke-width="2" /><path d="M +380.499997698,286.000006609 L 380.499997698,284.000006579 " fill="rgb(141,78,186)" stroke="rgb(141,78,186)" stroke-width="2" /><path d="M +380.499997698,284.000006579 L 379.99999769,284.000006579 " fill="rgb(141,78,186)" stroke="rgb(141,78,186)" stroke-width="2" /><path d="M +379.99999769,284.000006579 L 380.999997705,290.000006817 " fill="rgb(141,78,186)" stroke="rgb(141,78,186)" stroke-width="2" /><path d="M +380.999997705,290.000006817 L 382.499997765,302.000007294 " fill="rgb(141,78,186)" stroke="rgb(141,78,186)" stroke-width="2" /><path d="M +382.499997765,302.000007294 L 382.999997772,316.000007056 " fill="rgb(141,78,186)" stroke="rgb(141,78,186)" stroke-width="2" /><path d="M +382.999997772,316.000007056 L 383.49999778,330.500007533 " fill="rgb(141,78,186)" stroke="rgb(141,78,186)" stroke-width="2" /><path d="M +383.49999778,330.500007533 L 386.499997899,344.000007771 " fill="rgb(141,78,186)" stroke="rgb(141,78,186)" stroke-width="2" /><path d="M +386.499997899,344.000007771 L 388.499997929,353.500007652 " fill="rgb(141,78,186)" stroke="rgb(141,78,186)" stroke-width="2" /><path d="M +388.499997929,353.500007652 L 390.999997929,357.500007711 " fill="rgb(141,78,186)" stroke="rgb(141,78,186)" stroke-width="2" /><path d="M +390.999997929,357.500007711 L 395.49999781,361.000007652 " fill="rgb(141,78,186)" stroke="rgb(141,78,186)" stroke-width="2" /><path d="M +395.49999781,361.000007652 L 399.99999769,360.000007637 " fill="rgb(141,78,186)" stroke="rgb(141,78,186)" stroke-width="2" /><path d="M 393.999997452,247.500007637 " fill="rgb(48,185,108)" stroke="rgb(48,185,108)" stroke-width="2" /><path d="M +393.999997452,247.500007637 L 392.499997392,241.500007398 " fill="rgb(48,185,108)" stroke="rgb(48,185,108)" stroke-width="2" /><path d="M +392.499997392,241.500007398 L 392.499997392,239.500007369 " fill="rgb(48,185,108)" stroke="rgb(48,185,108)" stroke-width="2" /><path d="M +392.499997392,239.500007369 L 392.499997392,239.500007369 " fill="rgb(48,185,108)" stroke="rgb(48,185,108)" stroke-width="2" /><path d="M +392.499997392,239.500007369 L 392.9999974,241.500007398 " fill="rgb(48,185,108)" stroke="rgb(48,185,108)" stroke-width="2" /><path d="M 496.999993585,300.500008352 " fill="rgb(160,38,75)" stroke="rgb(160,38,75)" stroke-width="2" /><path d="M 493.499993645,293.500008471 " fill="rgb(31,129,28)" stroke="rgb(31,129,28)" stroke-width="2" /><path d="M +493.499993645,293.500008471 L 489.499993585,288.000008352 " fill="rgb(31,129,28)" stroke="rgb(31,129,28)" stroke-width="2" /><path d="M +489.499993585,288.000008352 L 484.499993585,283.500008471 " fill="rgb(31,129,28)" stroke="rgb(31,129,28)" stroke-width="2" /><path d="M +484.499993585,283.500008471 L 477.499993704,279.000008591 " fill="rgb(31,129,28)" stroke="rgb(31,129,28)" stroke-width="2" /><path d="M +477.499993704,279.000008591 L 469.999993704,276.500008591 " fill="rgb(31,129,28)" stroke="rgb(31,129,28)" stroke-width="2" /><path d="M +469.999993704,276.500008591 L 461.499993466,279.000008591 " fill="rgb(31,129,28)" stroke="rgb(31,129,28)" stroke-width="2" /><path d="M +461.499993466,279.000008591 L 450.499993227,281.00000862 " fill="rgb(31,129,28)" stroke="rgb(31,129,28)" stroke-width="2" /><path d="M +450.499993227,281.00000862 L 438.999993466,289.500008859 " fill="rgb(31,129,28)" stroke="rgb(31,129,28)" stroke-width="2" /><path d="M +438.999993466,289.500008859 L 428.499993943,300.500009097 " fill="rgb(31,129,28)" stroke="rgb(31,129,28)" stroke-width="2" /><path d="M +428.499993943,300.500009097 L 419.999993704,316.00000862 " fill="rgb(31,129,28)" stroke="rgb(31,129,28)" stroke-width="2" /><path d="M +419.999993704,316.00000862 L 415.999993645,333.000009097 " fill="rgb(31,129,28)" stroke="rgb(31,129,28)" stroke-width="2" /><path d="M +415.999993645,333.000009097 L 413.499993645,345.500009097 " fill="rgb(31,129,28)" stroke="rgb(31,129,28)" stroke-width="2" /><path d="M +413.499993645,345.500009097 L 418.499993645,359.000009336 " fill="rgb(31,129,28)" stroke="rgb(31,129,28)" stroke-width="2" /><path d="M +418.499993645,359.000009336 L 424.999993406,366.000009216 " fill="rgb(31,129,28)" stroke="rgb(31,129,28)" stroke-width="2" /><path d="M +424.999993406,366.000009216 L 434.999993406,370.500009097 " fill="rgb(31,129,28)" stroke="rgb(31,129,28)" stroke-width="2" /><path d="M +434.999993406,370.500009097 L 447.499993406,371.500009112 " fill="rgb(31,129,28)" stroke="rgb(31,129,28)" stroke-width="2" /><path d="M +447.499993406,371.500009112 L 460.999993645,369.000009112 " fill="rgb(31,129,28)" stroke="rgb(31,129,28)" stroke-width="2" /><path d="M +460.999993645,369.000009112 L 475.499994121,361.500009112 " fill="rgb(31,129,28)" stroke="rgb(31,129,28)" stroke-width="2" /><path d="M +475.499994121,361.500009112 L 489.999994598,354.000009112 " fill="rgb(31,129,28)" stroke="rgb(31,129,28)" stroke-width="2" /><path d="M +489.999994598,354.000009112 L 502.999994121,342.50000935 " fill="rgb(31,129,28)" stroke="rgb(31,129,28)" stroke-width="2" /><path d="M 505.499994121,217.50000935 " fill="rgb(78,198,179)" stroke="rgb(78,198,179)" stroke-width="2" /><path d="M +505.499994121,217.50000935 L 504.499994107,217.50000935 " fill="rgb(78,198,179)" stroke="rgb(78,198,179)" stroke-width="2" /><path d="M +504.499994107,217.50000935 L 505.499994121,219.50000938 " fill="rgb(78,198,179)" stroke="rgb(78,198,179)" stroke-width="2" /><path d="M +505.499994121,219.50000938 L 503.999994062,223.50000944 " fill="rgb(78,198,179)" stroke="rgb(78,198,179)" stroke-width="2" /><path d="M +503.999994062,223.50000944 L 503.999994062,234.000008963 " fill="rgb(78,198,179)" stroke="rgb(78,198,179)" stroke-width="2" /><path d="M +503.999994062,234.000008963 L 505.999994092,250.500008725 " fill="rgb(78,198,179)" stroke="rgb(78,198,179)" stroke-width="2" /><path d="M +505.999994092,250.500008725 L 506.499994099,266.500008963 " fill="rgb(78,198,179)" stroke="rgb(78,198,179)" stroke-width="2" /><path d="M +506.499994099,266.500008963 L 509.99999404,286.500008963 " fill="rgb(78,198,179)" stroke="rgb(78,198,179)" stroke-width="2" /><path d="M +509.99999404,286.500008963 L 512.49999404,303.000008725 " fill="rgb(78,198,179)" stroke="rgb(78,198,179)" stroke-width="2" /><path d="M +512.49999404,303.000008725 L 516.499994099,318.000008725 " fill="rgb(78,198,179)" stroke="rgb(78,198,179)" stroke-width="2" /><path d="M +516.499994099,318.000008725 L 521.499994099,331.000008248 " fill="rgb(78,198,179)" stroke="rgb(78,198,179)" stroke-width="2" /><path d="M +521.499994099,331.000008248 L 525.99999398,340.500008129 " fill="rgb(78,198,179)" stroke="rgb(78,198,179)" stroke-width="2" /><path d="M +525.99999398,340.500008129 L 530.99999398,349.000008367 " fill="rgb(78,198,179)" stroke="rgb(78,198,179)" stroke-width="2" /><path d="M 540.99999398,287.500007413 " fill="rgb(195,221,98)" stroke="rgb(195,221,98)" stroke-width="2" /><path d="M +540.99999398,287.500007413 L 542.99999401,293.500007652 " fill="rgb(195,221,98)" stroke="rgb(195,221,98)" stroke-width="2" /><path d="M +542.99999401,293.500007652 L 542.99999401,299.50000789 " fill="rgb(195,221,98)" stroke="rgb(195,221,98)" stroke-width="2" /><path d="M +542.99999401,299.50000789 L 545.999994129,311.500008367 " fill="rgb(195,221,98)" stroke="rgb(195,221,98)" stroke-width="2" /><path d="M +545.999994129,311.500008367 L 546.499994136,319.500008486 " fill="rgb(195,221,98)" stroke="rgb(195,221,98)" stroke-width="2" /><path d="M +546.499994136,319.500008486 L 549.999994077,328.500008248 " fill="rgb(195,221,98)" stroke="rgb(195,221,98)" stroke-width="2" /><path d="M +549.999994077,328.500008248 L 553.999994136,336.000008248 " fill="rgb(195,221,98)" stroke="rgb(195,221,98)" stroke-width="2" /><path d="M +553.999994136,336.000008248 L 558.999994136,343.000008129 " fill="rgb(195,221,98)" stroke="rgb(195,221,98)" stroke-width="2" /><path d="M +558.999994136,343.000008129 L 560.999994166,344.500008188 " fill="rgb(195,221,98)" stroke="rgb(195,221,98)" stroke-width="2" /><path d="M +560.999994166,344.500008188 L 564.499994107,347.500008307 " fill="rgb(195,221,98)" stroke="rgb(195,221,98)" stroke-width="2" /><path d="M +564.499994107,347.500008307 L 565.999994166,349.000008367 " fill="rgb(195,221,98)" stroke="rgb(195,221,98)" stroke-width="2" /><path d="M +565.999994166,349.000008367 L 565.499994159,347.500008307 " fill="rgb(195,221,98)" stroke="rgb(195,221,98)" stroke-width="2" /><path d="M +565.499994159,347.500008307 L 565.999994166,344.500008188 " fill="rgb(195,221,98)" stroke="rgb(195,221,98)" stroke-width="2" /><path d="M +565.999994166,344.500008188 L 566.999994181,336.00000795 " fill="rgb(195,221,98)" stroke="rgb(195,221,98)" stroke-width="2" /><path d="M +566.999994181,336.00000795 L 568.499994241,323.000008427 " fill="rgb(195,221,98)" stroke="rgb(195,221,98)" stroke-width="2" /><path d="M +568.499994241,323.000008427 L 572.999994121,309.000008665 " fill="rgb(195,221,98)" stroke="rgb(195,221,98)" stroke-width="2" /><path d="M +572.999994121,309.000008665 L 578.99999436,294.000008665 " fill="rgb(195,221,98)" stroke="rgb(195,221,98)" stroke-width="2" /><path d="M +578.99999436,294.000008665 L 587.499994598,280.500008427 " fill="rgb(195,221,98)" stroke="rgb(195,221,98)" stroke-width="2" /><path d="M +587.499994598,280.500008427 L 595.999994837,271.000008546 " fill="rgb(195,221,98)" stroke="rgb(195,221,98)" stroke-width="2" /><path d="M +595.999994837,271.000008546 L 604.499995075,270.000008531 " fill="rgb(195,221,98)" stroke="rgb(195,221,98)" stroke-width="2" /><path d="M +604.499995075,270.000008531 L 608.999994956,270.000008531 " fill="rgb(195,221,98)" stroke="rgb(195,221,98)" stroke-width="2" /><path d="M +608.999994956,270.000008531 L 610.999994986,273.500008471 " fill="rgb(195,221,98)" stroke="rgb(195,221,98)" stroke-width="2" /><path d="M +610.999994986,273.500008471 L 614.999995045,285.000008233 " fill="rgb(195,221,98)" stroke="rgb(195,221,98)" stroke-width="2" /><path d="M +614.999995045,285.000008233 L 616.499995105,297.00000871 " fill="rgb(195,221,98)" stroke="rgb(195,221,98)" stroke-width="2" /><path d="M +616.499995105,297.00000871 L 616.999995112,312.00000871 " fill="rgb(195,221,98)" stroke="rgb(195,221,98)" stroke-width="2" /><path d="M +616.999995112,312.00000871 L 619.999995232,328.500008471 " fill="rgb(195,221,98)" stroke="rgb(195,221,98)" stroke-width="2" /><path d="M +619.999995232,328.500008471 L 622.499995232,338.000008352 " fill="rgb(195,221,98)" stroke="rgb(195,221,98)" stroke-width="2" /><path d="M +622.499995232,338.000008352 L 625.999995172,342.500008233 " fill="rgb(195,221,98)" stroke="rgb(195,221,98)" stroke-width="2" /><path d="M +625.999995172,342.500008233 L 632.499994934,344.500008263 " fill="rgb(195,221,98)" stroke="rgb(195,221,98)" stroke-width="2" /><path d="M 669.49999541,200.500012077 " fill="rgb(157,235,229)" stroke="rgb(157,235,229)" stroke-width="2" /><path d="M +669.49999541,200.500012077 L 667.499995381,198.500012048 " fill="rgb(157,235,229)" stroke="rgb(157,235,229)" stroke-width="2" /><path d="M +667.499995381,198.500012048 L 668.499995396,198.500012048 " fill="rgb(157,235,229)" stroke="rgb(157,235,229)" stroke-width="2" /><path d="M +668.499995396,198.500012048 L 668.499995396,198.00001204 " fill="rgb(157,235,229)" stroke="rgb(157,235,229)" stroke-width="2" /><path d="M +668.499995396,198.00001204 L 668.499995396,198.00001204 " fill="rgb(157,235,229)" stroke="rgb(157,235,229)" stroke-width="2" /><path d="M +668.499995396,198.00001204 L 667.999995388,198.00001204 " fill="rgb(157,235,229)" stroke="rgb(157,235,229)" stroke-width="2" /><path d="M +667.999995388,198.00001204 L 668.499995396,200.50001204 " fill="rgb(157,235,229)" stroke="rgb(157,235,229)" stroke-width="2" /><path d="M +668.499995396,200.50001204 L 668.499995396,200.50001204 " fill="rgb(157,235,229)" stroke="rgb(157,235,229)" stroke-width="2" /><path d="M +668.499995396,200.50001204 L 670.499995425,204.000011981 " fill="rgb(157,235,229)" stroke="rgb(157,235,229)" stroke-width="2" /><path d="M 727.499993518,187.500012219 " fill="rgb(233,238,114)" stroke="rgb(233,238,114)" stroke-width="2" /><path d="M +727.499993518,187.500012219 L 728.499993533,189.000012279 " fill="rgb(233,238,114)" stroke="rgb(233,238,114)" stroke-width="2" /><path d="M +728.499993533,189.000012279 L 729.499993548,191.000012308 " fill="rgb(233,238,114)" stroke="rgb(233,238,114)" stroke-width="2" /><path d="M +729.499993548,191.000012308 L 731.499993578,199.000012428 " fill="rgb(233,238,114)" stroke="rgb(233,238,114)" stroke-width="2" /><path d="M +731.499993578,199.000012428 L 732.999993637,209.500011951 " fill="rgb(233,238,114)" stroke="rgb(233,238,114)" stroke-width="2" /><path d="M +732.999993637,209.500011951 L 734.499993697,224.500011951 " fill="rgb(233,238,114)" stroke="rgb(233,238,114)" stroke-width="2" /><path d="M +734.499993697,224.500011951 L 735.999993756,240.000011474 " fill="rgb(233,238,114)" stroke="rgb(233,238,114)" stroke-width="2" /><path d="M +735.999993756,240.000011474 L 737.999993786,257.000011951 " fill="rgb(233,238,114)" stroke="rgb(233,238,114)" stroke-width="2" /><path d="M +737.999993786,257.000011951 L 740.499993786,274.000012428 " fill="rgb(233,238,114)" stroke="rgb(233,238,114)" stroke-width="2" /><path d="M +740.499993786,274.000012428 L 742.999993786,288.000012189 " fill="rgb(233,238,114)" stroke="rgb(233,238,114)" stroke-width="2" /><path d="M +742.999993786,288.000012189 L 745.499993786,302.500012666 " fill="rgb(233,238,114)" stroke="rgb(233,238,114)" stroke-width="2" /><path d="M +745.499993786,302.500012666 L 747.999993786,314.500013143 " fill="rgb(233,238,114)" stroke="rgb(233,238,114)" stroke-width="2" /><path d="M +747.999993786,314.500013143 L 751.499993727,324.000013024 " fill="rgb(233,238,114)" stroke="rgb(233,238,114)" stroke-width="2" /><path d="M +751.499993727,324.000013024 L 754.999993667,331.500013024 " fill="rgb(233,238,114)" stroke="rgb(233,238,114)" stroke-width="2" /><path d="M +754.999993667,331.500013024 L 757.499993667,334.500013143 " fill="rgb(233,238,114)" stroke="rgb(233,238,114)" stroke-width="2" /><path d="M +757.499993667,334.500013143 L 757.999993674,334.500013143 " fill="rgb(233,238,114)" stroke="rgb(233,238,114)" stroke-width="2" /><path d="M +757.999993674,334.500013143 L 758.999993689,332.000013143 " fill="rgb(233,238,114)" stroke="rgb(233,238,114)" stroke-width="2" /><path d="M 709.499995597,292.000013143 " fill="rgb(37,237,226)" stroke="rgb(37,237,226)" stroke-width="2" /><path d="M +709.499995597,292.000013143 L 704.999995716,289.000013024 " fill="rgb(37,237,226)" stroke="rgb(37,237,226)" stroke-width="2" /><path d="M +704.999995716,289.000013024 L 704.499995708,287.500012964 " fill="rgb(37,237,226)" stroke="rgb(37,237,226)" stroke-width="2" /><path d="M +704.499995708,287.500012964 L 707.999995649,288.000012971 " fill="rgb(37,237,226)" stroke="rgb(37,237,226)" stroke-width="2" /><path d="M +707.999995649,288.000012971 L 715.499995649,286.000012942 " fill="rgb(37,237,226)" stroke="rgb(37,237,226)" stroke-width="2" /><path d="M +715.499995649,286.000012942 L 725.999995172,283.500012942 " fill="rgb(37,237,226)" stroke="rgb(37,237,226)" stroke-width="2" /><path d="M +725.999995172,283.500012942 L 740.499995649,280.000013001 " fill="rgb(37,237,226)" stroke="rgb(37,237,226)" stroke-width="2" /><path d="M +740.499995649,280.000013001 L 757.499996126,276.500013061 " fill="rgb(37,237,226)" stroke="rgb(37,237,226)" stroke-width="2" /><path d="M +757.499996126,276.500013061 L 775.499995649,273.00001312 " fill="rgb(37,237,226)" stroke="rgb(37,237,226)" stroke-width="2" /><path d="M 933.499997556,152.000009306 " fill="rgb(222,134,162)" stroke="rgb(222,134,162)" stroke-width="2" /><path d="M 931.999997497,155.500009246 " fill="rgb(59,8,9)" stroke="rgb(59,8,9)" stroke-width="2" /><path d="M +931.999997497,155.500009246 L 931.499997489,163.500009365 " fill="rgb(59,8,9)" stroke="rgb(59,8,9)" stroke-width="2" /><path d="M +931.499997489,163.500009365 L 930.999997482,174.000008889 " fill="rgb(59,8,9)" stroke="rgb(59,8,9)" stroke-width="2" /><path d="M +930.999997482,174.000008889 L 934.999997541,189.500008412 " fill="rgb(59,8,9)" stroke="rgb(59,8,9)" stroke-width="2" /><path d="M +934.999997541,189.500008412 L 937.999997661,204.500008412 " fill="rgb(59,8,9)" stroke="rgb(59,8,9)" stroke-width="2" /><path d="M +937.999997661,204.500008412 L 940.99999778,219.500008412 " fill="rgb(59,8,9)" stroke="rgb(59,8,9)" stroke-width="2" /><path d="M +940.99999778,219.500008412 L 945.99999778,236.000008173 " fill="rgb(59,8,9)" stroke="rgb(59,8,9)" stroke-width="2" /><path d="M +945.99999778,236.000008173 L 948.999997899,251.500007696 " fill="rgb(59,8,9)" stroke="rgb(59,8,9)" stroke-width="2" /><path d="M +948.999997899,251.500007696 L 953.999997899,270.500007458 " fill="rgb(59,8,9)" stroke="rgb(59,8,9)" stroke-width="2" /><path d="M +953.999997899,270.500007458 L 957.499997839,287.500007935 " fill="rgb(59,8,9)" stroke="rgb(59,8,9)" stroke-width="2" /><path d="M +957.499997839,287.500007935 L 958.999997899,301.500007696 " fill="rgb(59,8,9)" stroke="rgb(59,8,9)" stroke-width="2" /><path d="M +958.999997899,301.500007696 L 961.999998018,314.000007696 " fill="rgb(59,8,9)" stroke="rgb(59,8,9)" stroke-width="2" /><path d="M +961.999998018,314.000007696 L 963.999998048,322.500007935 " fill="rgb(59,8,9)" stroke="rgb(59,8,9)" stroke-width="2" /><path d="M +963.999998048,322.500007935 L 965.999998078,326.500007994 " fill="rgb(59,8,9)" stroke="rgb(59,8,9)" stroke-width="2" /><path d="M +965.999998078,326.500007994 L 967.499998137,328.000008054 " fill="rgb(59,8,9)" stroke="rgb(59,8,9)" stroke-width="2" /><path d="M +967.499998137,328.000008054 L 969.499998167,328.500008062 " fill="rgb(59,8,9)" stroke="rgb(59,8,9)" stroke-width="2" /><path d="M +969.499998167,328.500008062 L 969.999998175,323.500008062 " fill="rgb(59,8,9)" stroke="rgb(59,8,9)" stroke-width="2" /><path d="M +969.999998175,323.500008062 L 972.499998175,314.5000083 " fill="rgb(59,8,9)" stroke="rgb(59,8,9)" stroke-width="2" /><path d="M +972.499998175,314.5000083 L 973.49999819,298.500008062 " fill="rgb(59,8,9)" stroke="rgb(59,8,9)" stroke-width="2" /><path d="M +973.49999819,298.500008062 L 978.49999819,282.500007823 " fill="rgb(59,8,9)" stroke="rgb(59,8,9)" stroke-width="2" /><path d="M +978.49999819,282.500007823 L 981.99999813,266.500007585 " fill="rgb(59,8,9)" stroke="rgb(59,8,9)" stroke-width="2" /><path d="M +981.99999813,266.500007585 L 987.499998249,254.500007108 " fill="rgb(59,8,9)" stroke="rgb(59,8,9)" stroke-width="2" /><path d="M +987.499998249,254.500007108 L 991.499998309,244.000007585 " fill="rgb(59,8,9)" stroke="rgb(59,8,9)" stroke-width="2" /><path d="M +991.499998309,244.000007585 L 996.499998309,239.500007704 " fill="rgb(59,8,9)" stroke="rgb(59,8,9)" stroke-width="2" /><path d="M +996.499998309,239.500007704 L 998.499998339,238.000007644 " fill="rgb(59,8,9)" stroke="rgb(59,8,9)" stroke-width="2" /><path d="M +998.499998339,238.000007644 L 999.999998398,239.500007704 " fill="rgb(59,8,9)" stroke="rgb(59,8,9)" stroke-width="2" /><path d="M +999.999998398,239.500007704 L 1000.49999841,244.000007585 " fill="rgb(59,8,9)" stroke="rgb(59,8,9)" stroke-width="2" /><path d="M +1000.49999841,244.000007585 L 1001.49999842,253.500007465 " fill="rgb(59,8,9)" stroke="rgb(59,8,9)" stroke-width="2" /><path d="M +1001.49999842,253.500007465 L 1002.49999844,268.000007942 " fill="rgb(59,8,9)" stroke="rgb(59,8,9)" stroke-width="2" /><path d="M +1002.49999844,268.000007942 L 1002.49999844,283.500007465 " fill="rgb(59,8,9)" stroke="rgb(59,8,9)" stroke-width="2" /><path d="M +1002.49999844,283.500007465 L 1004.49999847,300.000007227 " fill="rgb(59,8,9)" stroke="rgb(59,8,9)" stroke-width="2" /><path d="M +1004.49999847,300.000007227 L 1007.49999858,312.500007227 " fill="rgb(59,8,9)" stroke="rgb(59,8,9)" stroke-width="2" /><path d="M +1007.49999858,312.500007227 L 1013.49999882,323.500007465 " fill="rgb(59,8,9)" stroke="rgb(59,8,9)" stroke-width="2" /><path d="M +1013.49999882,323.500007465 L 1022.9999987,330.500007346 " fill="rgb(59,8,9)" stroke="rgb(59,8,9)" stroke-width="2" /><path d="M +1022.9999987,330.500007346 L 1032.9999987,330.500007346 " fill="rgb(59,8,9)" stroke="rgb(59,8,9)" stroke-width="2" /><path d="M +1032.9999987,330.500007346 L 1048.99999894,328.500007316 " fill="rgb(59,8,9)" stroke="rgb(59,8,9)" stroke-width="2" /><path d="M +1048.99999894,328.500007316 L 1063.99999894,319.000007436 " fill="rgb(59,8,9)" stroke="rgb(59,8,9)" stroke-width="2" /><path d="M +1063.99999894,319.000007436 L 1078.49999942,306.500007436 " fill="rgb(59,8,9)" stroke="rgb(59,8,9)" stroke-width="2" /><path d="M +1078.49999942,306.500007436 L 1091.99999966,292.500007674 " fill="rgb(59,8,9)" stroke="rgb(59,8,9)" stroke-width="2" /><path d="M +1091.99999966,292.500007674 L 1101.99999966,275.000007674 " fill="rgb(59,8,9)" stroke="rgb(59,8,9)" stroke-width="2" /><path d="M +1101.99999966,275.000007674 L 1107.9999999,256.500007436 " fill="rgb(59,8,9)" stroke="rgb(59,8,9)" stroke-width="2" /><path d="M +1107.9999999,256.500007436 L 1112.49999978,241.500007436 " fill="rgb(59,8,9)" stroke="rgb(59,8,9)" stroke-width="2" /><path d="M +1112.49999978,241.500007436 L 1111.99999977,230.500007197 " fill="rgb(59,8,9)" stroke="rgb(59,8,9)" stroke-width="2" /><path d="M +1111.99999977,230.500007197 L 1108.49999983,225.500007197 " fill="rgb(59,8,9)" stroke="rgb(59,8,9)" stroke-width="2" /><path d="M +1108.49999983,225.500007197 L 1104.99999989,223.500007167 " fill="rgb(59,8,9)" stroke="rgb(59,8,9)" stroke-width="2" /><path d="M +1104.99999989,223.500007167 L 1099.99999989,225.500007197 " fill="rgb(59,8,9)" stroke="rgb(59,8,9)" stroke-width="2" /><path d="M +1099.99999989,225.500007197 L 1089.99999989,229.500007257 " fill="rgb(59,8,9)" stroke="rgb(59,8,9)" stroke-width="2" /><path d="M +1089.99999989,229.500007257 L 1081.99999977,239.000007138 " fill="rgb(59,8,9)" stroke="rgb(59,8,9)" stroke-width="2" /><path d="M +1081.99999977,239.000007138 L 1076.49999965,255.500006899 " fill="rgb(59,8,9)" stroke="rgb(59,8,9)" stroke-width="2" /><path d="M +1076.49999965,255.500006899 L 1073.49999953,274.000007138 " fill="rgb(59,8,9)" stroke="rgb(59,8,9)" stroke-width="2" /><path d="M +1073.49999953,274.000007138 L 1071.4999995,289.000007138 " fill="rgb(59,8,9)" stroke="rgb(59,8,9)" stroke-width="2" /><path d="M +1071.4999995,289.000007138 L 1075.99999938,303.000006899 " fill="rgb(59,8,9)" stroke="rgb(59,8,9)" stroke-width="2" /><path d="M +1075.99999938,303.000006899 L 1082.99999926,313.500006422 " fill="rgb(59,8,9)" stroke="rgb(59,8,9)" stroke-width="2" /><path d="M +1082.99999926,313.500006422 L 1093.49999879,320.000006184 " fill="rgb(59,8,9)" stroke="rgb(59,8,9)" stroke-width="2" /><path d="M +1093.49999879,320.000006184 L 1106.49999831,322.500006184 " fill="rgb(59,8,9)" stroke="rgb(59,8,9)" stroke-width="2" /><path d="M +1106.49999831,322.500006184 L 1119.99999855,321.000006124 " fill="rgb(59,8,9)" stroke="rgb(59,8,9)" stroke-width="2" /><path d="M 1211.99999664,255.000007078 " fill="rgb(193,179,76)" stroke="rgb(193,179,76)" stroke-width="2" /><path d="M +1211.99999664,255.000007078 L 1212.49999665,251.500007138 " fill="rgb(193,179,76)" stroke="rgb(193,179,76)" stroke-width="2" /><path d="M +1212.49999665,251.500007138 L 1212.49999665,246.000007018 " fill="rgb(193,179,76)" stroke="rgb(193,179,76)" stroke-width="2" /><path d="M +1212.49999665,246.000007018 L 1211.49999663,241.500007138 " fill="rgb(193,179,76)" stroke="rgb(193,179,76)" stroke-width="2" /><path d="M +1211.49999663,241.500007138 L 1208.99999663,235.500006899 " fill="rgb(193,179,76)" stroke="rgb(193,179,76)" stroke-width="2" /><path d="M +1208.99999663,235.500006899 L 1204.49999675,231.50000684 " fill="rgb(193,179,76)" stroke="rgb(193,179,76)" stroke-width="2" /><path d="M +1204.49999675,231.50000684 L 1198.99999663,228.50000672 " fill="rgb(193,179,76)" stroke="rgb(193,179,76)" stroke-width="2" /><path d="M +1198.99999663,228.50000672 L 1192.99999639,228.50000672 " fill="rgb(193,179,76)" stroke="rgb(193,179,76)" stroke-width="2" /><path d="M +1192.99999639,228.50000672 L 1182.49999687,228.000006713 " fill="rgb(193,179,76)" stroke="rgb(193,179,76)" stroke-width="2" /><path d="M +1182.49999687,228.000006713 L 1173.99999663,234.000006951 " fill="rgb(193,179,76)" stroke="rgb(193,179,76)" stroke-width="2" /><path d="M +1173.99999663,234.000006951 L 1161.99999616,243.500006832 " fill="rgb(193,179,76)" stroke="rgb(193,179,76)" stroke-width="2" /><path d="M +1161.99999616,243.500006832 L 1150.99999592,257.000007071 " fill="rgb(193,179,76)" stroke="rgb(193,179,76)" stroke-width="2" /><path d="M +1150.99999592,257.000007071 L 1143.49999592,275.000006594 " fill="rgb(193,179,76)" stroke="rgb(193,179,76)" stroke-width="2" /><path d="M +1143.49999592,275.000006594 L 1138.99999604,290.500006117 " fill="rgb(193,179,76)" stroke="rgb(193,179,76)" stroke-width="2" /><path d="M +1138.99999604,290.500006117 L 1139.99999605,303.000006117 " fill="rgb(193,179,76)" stroke="rgb(193,179,76)" stroke-width="2" /><path d="M +1139.99999605,303.000006117 L 1147.49999605,312.500005998 " fill="rgb(193,179,76)" stroke="rgb(193,179,76)" stroke-width="2" /><path d="M +1147.49999605,312.500005998 L 1155.99999629,318.000006117 " fill="rgb(193,179,76)" stroke="rgb(193,179,76)" stroke-width="2" /><path d="M +1155.99999629,318.000006117 L 1167.99999677,321.000006236 " fill="rgb(193,179,76)" stroke="rgb(193,179,76)" stroke-width="2" /><path d="M +1167.99999677,321.000006236 L 1177.49999665,317.500006296 " fill="rgb(193,179,76)" stroke="rgb(193,179,76)" stroke-width="2" /><path d="M +1177.49999665,317.500006296 L 1190.49999617,313.000006415 " fill="rgb(193,179,76)" stroke="rgb(193,179,76)" stroke-width="2" /><path d="M +1190.49999617,313.000006415 L 1202.49999665,304.000006653 " fill="rgb(193,179,76)" stroke="rgb(193,179,76)" stroke-width="2" /><path d="M +1202.49999665,304.000006653 L 1213.49999689,294.000006653 " fill="rgb(193,179,76)" stroke="rgb(193,179,76)" stroke-width="2" /><path d="M +1213.49999689,294.000006653 L 1220.49999677,281.00000713 " fill="rgb(193,179,76)" stroke="rgb(193,179,76)" stroke-width="2" /><path d="M +1220.49999677,281.00000713 L 1226.499997,269.000006653 " fill="rgb(193,179,76)" stroke="rgb(193,179,76)" stroke-width="2" /><path d="M +1226.499997,269.000006653 L 1229.49999712,257.000006177 " fill="rgb(193,179,76)" stroke="rgb(193,179,76)" stroke-width="2" /><path d="M +1229.49999712,257.000006177 L 1228.99999712,248.500005938 " fill="rgb(193,179,76)" stroke="rgb(193,179,76)" stroke-width="2" /><path d="M +1228.99999712,248.500005938 L 1225.49999718,244.000006057 " fill="rgb(193,179,76)" stroke="rgb(193,179,76)" stroke-width="2" /><path d="M +1225.49999718,244.000006057 L 1223.99999712,242.500005998 " fill="rgb(193,179,76)" stroke="rgb(193,179,76)" stroke-width="2" /><path d="M +1223.99999712,242.500005998 L 1221.99999709,241.500005983 " fill="rgb(193,179,76)" stroke="rgb(193,179,76)" stroke-width="2" /><path d="M +1221.99999709,241.500005983 L 1223.49999715,243.000006042 " fill="rgb(193,179,76)" stroke="rgb(193,179,76)" stroke-width="2" /><path d="M +1223.49999715,243.000006042 L 1220.99999715,246.000006162 " fill="rgb(193,179,76)" stroke="rgb(193,179,76)" stroke-width="2" /><path d="M +1220.99999715,246.000006162 L 1222.49999721,256.000006162 " fill="rgb(193,179,76)" stroke="rgb(193,179,76)" stroke-width="2" /><path d="M +1222.49999721,256.000006162 L 1223.99999727,268.500006162 " fill="rgb(193,179,76)" stroke="rgb(193,179,76)" stroke-width="2" /><path d="M +1223.99999727,268.500006162 L 1227.99999733,281.500005685 " fill="rgb(193,179,76)" stroke="rgb(193,179,76)" stroke-width="2" /><path d="M +1227.99999733,281.500005685 L 1232.99999733,294.500005208 " fill="rgb(193,179,76)" stroke="rgb(193,179,76)" stroke-width="2" /><path d="M +1232.99999733,294.500005208 L 1238.49999744,305.500005446 " fill="rgb(193,179,76)" stroke="rgb(193,179,76)" stroke-width="2" /><path d="M +1238.49999744,305.500005446 L 1243.49999744,315.000005327 " fill="rgb(193,179,76)" stroke="rgb(193,179,76)" stroke-width="2" /><path d="M +1243.49999744,315.000005327 L 1250.99999744,321.500005089 " fill="rgb(193,179,76)" stroke="rgb(193,179,76)" stroke-width="2" /><path d="M +1250.99999744,321.500005089 L 1258.49999744,325.000005029 " fill="rgb(193,179,76)" stroke="rgb(193,179,76)" stroke-width="2" /><path d="M +1258.49999744,325.000005029 L 1265.49999733,326.500005089 " fill="rgb(193,179,76)" stroke="rgb(193,179,76)" stroke-width="2" /><path d="M +1265.49999733,326.500005089 L 1271.49999756,326.000005081 " fill="rgb(193,179,76)" stroke="rgb(193,179,76)" stroke-width="2" /><path d="M +1271.49999756,326.000005081 L 1277.4999978,322.500005141 " fill="rgb(193,179,76)" stroke="rgb(193,179,76)" stroke-width="2" /><path d="M +1277.4999978,322.500005141 L 1282.4999978,317.500005141 " fill="rgb(193,179,76)" stroke="rgb(193,179,76)" stroke-width="2" /><path d="M +1282.4999978,317.500005141 L 1280.49999777,308.00000526 " fill="rgb(193,179,76)" stroke="rgb(193,179,76)" stroke-width="2" /><path d="M +1280.49999777,308.00000526 L 1280.99999778,301.500005499 " fill="rgb(193,179,76)" stroke="rgb(193,179,76)" stroke-width="2" /><path d="M +1280.99999778,301.500005499 L 1279.49999772,294.500005618 " fill="rgb(193,179,76)" stroke="rgb(193,179,76)" stroke-width="2" /><path d="M +1279.49999772,294.500005618 L 1277.49999769,287.500005737 " fill="rgb(193,179,76)" stroke="rgb(193,179,76)" stroke-width="2" /><path d="M +1277.49999769,287.500005737 L 1274.99999769,279.000005499 " fill="rgb(193,179,76)" stroke="rgb(193,179,76)" stroke-width="2" /><path d="M +1274.99999769,279.000005499 L 1271.49999775,270.50000526 " fill="rgb(193,179,76)" stroke="rgb(193,179,76)" stroke-width="2" /><path d="M +1271.49999775,270.50000526 L 1267.99999781,263.00000526 " fill="rgb(193,179,76)" stroke="rgb(193,179,76)" stroke-width="2" /><path d="M +1267.99999781,263.00000526 L 1266.49999775,256.000005379 " fill="rgb(193,179,76)" stroke="rgb(193,179,76)" stroke-width="2" /><path d="M +1266.49999775,256.000005379 L 1267.49999776,248.500005379 " fill="rgb(193,179,76)" stroke="rgb(193,179,76)" stroke-width="2" /><path d="M +1267.49999776,248.500005379 L 1271.49999782,241.000005379 " fill="rgb(193,179,76)" stroke="rgb(193,179,76)" stroke-width="2" /><path d="M +1271.49999782,241.000005379 L 1277.49999806,234.000005499 " fill="rgb(193,179,76)" stroke="rgb(193,179,76)" stroke-width="2" /><path d="M +1277.49999806,234.000005499 L 1287.49999806,229.000005499 " fill="rgb(193,179,76)" stroke="rgb(193,179,76)" stroke-width="2" /><path d="M +1287.49999806,229.000005499 L 1297.99999759,226.000005379 " fill="rgb(193,179,76)" stroke="rgb(193,179,76)" stroke-width="2" /><path d="M +1297.99999759,226.000005379 L 1307.99999759,227.000005394 " fill="rgb(193,179,76)" stroke="rgb(193,179,76)" stroke-width="2" /><path d="M 1430.49999759,201.500005871 " fill="rgb(211,88,152)" stroke="rgb(211,88,152)" stroke-width="2" /><path d="M +1430.49999759,201.500005871 L 1430.99999759,201.000005864 " fill="rgb(211,88,152)" stroke="rgb(211,88,152)" stroke-width="2" /><path d="M +1430.99999759,201.000005864 L 1430.49999759,201.500005871 " fill="rgb(211,88,152)" stroke="rgb(211,88,152)" stroke-width="2" /><path d="M +1430.49999759,201.500005871 L 1430.99999759,204.50000599 " fill="rgb(211,88,152)" stroke="rgb(211,88,152)" stroke-width="2" /><path d="M +1430.99999759,204.50000599 L 1428.49999759,210.000006109 " fill="rgb(211,88,152)" stroke="rgb(211,88,152)" stroke-width="2" /><path d="M +1428.49999759,210.000006109 L 1428.49999759,220.500005633 " fill="rgb(211,88,152)" stroke="rgb(211,88,152)" stroke-width="2" /><path d="M +1428.49999759,220.500005633 L 1426.99999753,232.500006109 " fill="rgb(211,88,152)" stroke="rgb(211,88,152)" stroke-width="2" /><path d="M +1426.99999753,232.500006109 L 1426.99999753,245.000006109 " fill="rgb(211,88,152)" stroke="rgb(211,88,152)" stroke-width="2" /><path d="M +1426.99999753,245.000006109 L 1430.49999747,257.000006586 " fill="rgb(211,88,152)" stroke="rgb(211,88,152)" stroke-width="2" /><path d="M +1430.49999747,257.000006586 L 1435.49999747,266.500006467 " fill="rgb(211,88,152)" stroke="rgb(211,88,152)" stroke-width="2" /><path d="M +1435.49999747,266.500006467 L 1440.99999759,273.000006229 " fill="rgb(211,88,152)" stroke="rgb(211,88,152)" stroke-width="2" /><path d="M +1440.99999759,273.000006229 L 1450.49999747,276.500006169 " fill="rgb(211,88,152)" stroke="rgb(211,88,152)" stroke-width="2" /><path d="M +1450.49999747,276.500006169 L 1458.49999759,276.500006169 " fill="rgb(211,88,152)" stroke="rgb(211,88,152)" stroke-width="2" /><path d="M +1458.49999759,276.500006169 L 1467.99999747,274.000006169 " fill="rgb(211,88,152)" stroke="rgb(211,88,152)" stroke-width="2" /><path d="M +1467.99999747,274.000006169 L 1478.99999771,269.000006169 " fill="rgb(211,88,152)" stroke="rgb(211,88,152)" stroke-width="2" /><path d="M +1478.99999771,269.000006169 L 1486.49999771,260.000006407 " fill="rgb(211,88,152)" stroke="rgb(211,88,152)" stroke-width="2" /><path d="M +1486.49999771,260.000006407 L 1492.49999795,248.000005931 " fill="rgb(211,88,152)" stroke="rgb(211,88,152)" stroke-width="2" /><path d="M +1492.49999795,248.000005931 L 1498.49999819,237.000005692 " fill="rgb(211,88,152)" stroke="rgb(211,88,152)" stroke-width="2" /><path d="M +1498.49999819,237.000005692 L 1502.49999825,228.000005931 " fill="rgb(211,88,152)" stroke="rgb(211,88,152)" stroke-width="2" /><path d="M +1502.49999825,228.000005931 L 1501.99999824,221.500006169 " fill="rgb(211,88,152)" stroke="rgb(211,88,152)" stroke-width="2" /><path d="M +1501.99999824,221.500006169 L 1501.99999824,218.000006229 " fill="rgb(211,88,152)" stroke="rgb(211,88,152)" stroke-width="2" /><path d="M +1501.99999824,218.000006229 L 1500.99999823,216.000006199 " fill="rgb(211,88,152)" stroke="rgb(211,88,152)" stroke-width="2" /><path d="M +1500.99999823,216.000006199 L 1500.99999823,216.000006199 " fill="rgb(211,88,152)" stroke="rgb(211,88,152)" stroke-width="2" /><path d="M +1500.99999823,216.000006199 L 1500.49999822,217.000006214 " fill="rgb(211,88,152)" stroke="rgb(211,88,152)" stroke-width="2" /></svg>